<svg width="1211" height="1211" viewBox="0 0 1211 1211" fill="none" xmlns="http://www.w3.org/2000/svg">
<path fill-rule="evenodd" clip-rule="evenodd" d="M1196.31 310.324C1196.31 147.381 1064.01 15.0935 901.074 15.0935H310.434C147.493 15.0935 15.2036 147.381 15.2036 310.324V900.785C15.2036 1063.72 147.493 1196.01 310.434 1196.01H901.074C1064.01 1196.01 1196.31 1063.72 1196.31 900.785V310.324Z" fill="#37485A"/>
<path fill-rule="evenodd" clip-rule="evenodd" d="M1196.31 310.324C1196.31 147.381 1064.01 15.0935 901.074 15.0935H310.434C147.493 15.0935 15.2036 147.381 15.2036 310.324V900.785C15.2036 1063.72 147.493 1196.01 310.434 1196.01H901.074C1064.01 1196.01 1196.31 1063.72 1196.31 900.785V310.324Z" stroke="#F20D0D" stroke-width="29.1373" stroke-miterlimit="1.5" stroke-linecap="round" stroke-linejoin="round"/>
<path fill-rule="evenodd" clip-rule="evenodd" d="M1196.31 310.324C1196.31 147.381 1064.01 15.0935 901.074 15.0935H310.434C147.493 15.0935 15.2036 147.381 15.2036 310.324V900.785C15.2036 1063.72 147.493 1196.01 310.434 1196.01H901.074C1064.01 1196.01 1196.31 1063.72 1196.31 900.785V310.324Z" fill="#D92626"/>
<path d="M15.2007 794.123C1194.59 794.43 1196.3 794.594 1196.3 794.594" stroke="#37485A" stroke-width="13.7398" stroke-miterlimit="1.5" stroke-linecap="round" stroke-linejoin="round"/>
<path fill-rule="evenodd" clip-rule="evenodd" d="M1196.31 310.324C1196.31 147.381 1064.01 15.0935 901.074 15.0935H310.434C147.493 15.0935 15.2036 147.381 15.2036 310.324V900.785C15.2036 1063.72 147.493 1196.01 310.434 1196.01H901.074C1064.01 1196.01 1196.31 1063.72 1196.31 900.785V310.324Z" stroke="#37485A" stroke-width="29.1373" stroke-miterlimit="1.5" stroke-linecap="round" stroke-linejoin="round"/>
<path fill-rule="evenodd" clip-rule="evenodd" d="M1196.3 794.59V918.371L1175.25 1011.25L1133.16 1078.77L1071.66 1141.94L984.535 1180.82C984.535 1180.82 840.402 1195.61 833.235 1196.02C826.058 1196.43 712.613 1196.02 712.613 1196.02H378.507L198.989 1158.23L118.665 1102.91L55.6472 1020.35L35.0984 954.187L31.5395 865.112L29.1206 794.59" fill="#37485A"/>
<path d="M1196.3 794.59V918.371L1175.25 1011.25L1133.16 1078.77L1071.66 1141.94L984.535 1180.82C984.535 1180.82 840.402 1195.61 833.235 1196.02C826.058 1196.43 712.613 1196.02 712.613 1196.02H378.507L198.989 1158.23L118.665 1102.91L55.6472 1020.35L35.0984 954.187L31.5395 865.112L29.1206 794.59" stroke="#37485A" stroke-width="29.1644" stroke-miterlimit="1.5" stroke-linecap="round" stroke-linejoin="round"/>
<path d="M250.721 1031V930.658H290.309C297.92 930.658 304.403 932.112 309.76 935.019C315.117 937.893 319.2 941.894 322.009 947.023C324.851 952.118 326.271 957.997 326.271 964.661C326.271 971.324 324.834 977.203 321.96 982.299C319.086 987.394 314.921 991.363 309.466 994.205C304.044 997.046 297.479 998.467 289.77 998.467H264.538V981.466H286.341C290.423 981.466 293.788 980.764 296.433 979.359C299.112 977.922 301.104 975.946 302.411 973.431C303.75 970.883 304.42 967.96 304.42 964.661C304.42 961.329 303.75 958.422 302.411 955.94C301.104 953.425 299.112 951.481 296.433 950.109C293.755 948.705 290.358 948.002 286.243 948.002H271.936V1031H250.721ZM361.266 930.658V1031H340.051V930.658H361.266ZM382.824 974.313V990.873H350.781V974.313H382.824ZM470.182 980.829C470.182 991.771 468.108 1001.08 463.96 1008.76C459.844 1016.43 454.226 1022.3 447.105 1026.35C440.017 1030.36 432.048 1032.37 423.196 1032.37C414.279 1032.37 406.276 1030.35 399.188 1026.3C392.1 1022.25 386.499 1016.38 382.383 1008.71C378.267 1001.03 376.21 991.739 376.21 980.829C376.21 969.887 378.267 960.578 382.383 952.902C386.499 945.226 392.1 939.379 399.188 935.362C406.276 931.311 414.279 929.286 423.196 929.286C432.048 929.286 440.017 931.311 447.105 935.362C454.226 939.379 459.844 945.226 463.96 952.902C468.108 960.578 470.182 969.887 470.182 980.829ZM448.673 980.829C448.673 973.741 447.612 967.764 445.489 962.897C443.398 958.03 440.442 954.339 436.621 951.824C432.799 949.309 428.324 948.051 423.196 948.051C418.068 948.051 413.593 949.309 409.771 951.824C405.95 954.339 402.977 958.03 400.854 962.897C398.764 967.764 397.718 973.741 397.718 980.829C397.718 987.917 398.764 993.894 400.854 998.761C402.977 1003.63 405.95 1007.32 409.771 1009.83C413.593 1012.35 418.068 1013.61 423.196 1013.61C428.324 1013.61 432.799 1012.35 436.621 1009.83C440.442 1007.32 443.398 1003.63 445.489 998.761C447.612 993.894 448.673 987.917 448.673 980.829ZM546.541 1031L514.302 988.227H507.051V1031H485.836V930.658H507.051V970.736H511.313L544.63 930.658H571.038L531.891 977.203L572.851 1031H546.541ZM620.021 1032.37C612.705 1032.37 606.188 1031.11 600.472 1028.6C594.789 1026.05 590.297 1022.56 586.998 1018.11C583.732 1013.64 582.05 1008.48 581.952 1002.63H603.314C603.444 1005.08 604.245 1007.24 605.715 1009.1C607.217 1010.93 609.21 1012.35 611.692 1013.36C614.174 1014.37 616.967 1014.88 620.07 1014.88C623.304 1014.88 626.162 1014.31 628.644 1013.17C631.127 1012.02 633.07 1010.44 634.475 1008.41C635.879 1006.39 636.581 1004.05 636.581 1001.41C636.581 998.729 635.83 996.361 634.328 994.303C632.858 992.212 630.735 990.579 627.958 989.403C625.215 988.227 621.948 987.639 618.159 987.639H608.801V972.059H618.159C621.36 972.059 624.186 971.504 626.635 970.393C629.118 969.283 631.045 967.747 632.417 965.788C633.789 963.795 634.475 961.476 634.475 958.83C634.475 956.315 633.87 954.11 632.662 952.216C631.486 950.289 629.82 948.786 627.664 947.708C625.541 946.631 623.059 946.092 620.217 946.092C617.343 946.092 614.713 946.614 612.329 947.659C609.945 948.672 608.034 950.126 606.597 952.02C605.159 953.914 604.392 956.136 604.294 958.683H583.961C584.059 952.902 585.708 947.806 588.909 943.397C592.11 938.987 596.422 935.541 601.844 933.059C607.299 930.544 613.456 929.286 620.315 929.286C627.24 929.286 633.299 930.544 638.492 933.059C643.686 935.574 647.72 938.971 650.594 943.25C653.501 947.496 654.938 952.265 654.906 957.556C654.938 963.175 653.191 967.862 649.663 971.618C646.168 975.374 641.612 977.759 635.994 978.771V979.555C643.375 980.502 648.994 983.067 652.848 987.247C656.735 991.396 658.662 996.589 658.629 1002.83C658.662 1008.54 657.012 1013.62 653.681 1018.07C650.382 1022.51 645.825 1026 640.011 1028.55C634.197 1031.1 627.534 1032.37 620.021 1032.37ZM691.762 1031H669.028L703.668 930.658H731.007L765.598 1031H742.864L717.729 953.588H716.946L691.762 1031ZM690.341 991.559H744.04V1008.12H690.341V991.559ZM838.38 1031L806.141 988.227H798.89V1031H777.675V930.658H798.89V970.736H803.152L836.469 930.658H862.877L823.73 977.203L864.69 1031H838.38ZM875.359 930.658H896.525V993.764H897.358L940.718 930.658H959.287V1031H938.072V967.845H937.337L893.732 1031H875.359V930.658Z" fill="white"/>
<path fill-rule="evenodd" clip-rule="evenodd" d="M536.401 139.368C515.192 141.822 443.036 139.995 419.951 142.381C411.664 143.24 404.215 149.076 397.875 153.657C391.692 158.102 385.693 164.333 381.94 169.8C378.529 174.777 376.894 181.267 375.345 186.503C373.937 191.302 373.198 196.279 372.686 201.242C371.066 216.976 368.422 265.052 365.636 280.895C364.598 286.826 360.006 291.748 356.026 296.384C348.905 304.674 332.685 318.24 322.891 330.661C312.671 343.641 303.374 360.412 294.646 374.21C286.43 387.204 277.872 400.034 270.509 413.478C262.947 427.303 255.697 443.692 249.272 457.095C243.401 469.339 235.881 480.996 231.944 493.922C227.111 509.82 222.22 532.74 220.23 552.537C217.97 574.898 216.805 609.966 218.411 628.1C219.435 639.703 223.472 651.334 229.812 661.273C237.345 673.054 251.66 688.788 263.558 698.85C274.702 708.271 286.615 719.179 301.228 721.688C323.659 725.519 375.672 718.307 398.145 721.865C412.559 724.156 421.444 742.317 436.043 743.054C507.601 746.626 756.15 746.571 827.481 743.299C841.483 742.644 850.282 725.887 864.056 723.365C883.9 719.738 923.205 727.66 946.532 721.484C968.423 715.689 988.878 700.623 1003.97 686.334C1018.76 672.344 1031.71 654.974 1037.12 635.736C1043.01 614.888 1042.94 585.833 1039.23 561.236C1035.47 536.257 1024.22 510.529 1014.55 485.891C1004.43 460.108 990.897 430.112 978.515 406.538C967.257 385.063 952.772 361.939 940.334 344.419C929.488 329.148 911.762 310.25 903.858 301.415C900.575 297.747 892.87 291.448 892.87 291.448L893.325 209.695C893.325 209.695 891.889 192.938 889.032 185.071C886.104 176.958 881.015 168.028 875.713 161.074C870.552 154.311 864.056 147.058 857.205 143.308C850.509 139.641 842.322 138.754 834.603 138.591C813.323 138.1 749.583 140.104 729.525 140.404C724.436 140.486 714.258 140.39 714.258 140.39L714.557 111.58C714.557 111.58 714.969 102.786 713.704 98.6413C712.183 93.6919 709.298 86.9019 705.488 81.9389C701.366 76.5532 694.216 70.4859 688.913 66.3C684.265 62.6187 678.38 59.2101 673.746 56.8514C669.751 54.8334 665.487 53.2109 661.094 52.1883C655.593 50.9202 647.562 49.734 640.696 49.2295C631.868 48.5614 616.715 47.5661 608.072 48.2478C601.434 48.7796 594.852 50.6748 588.811 53.3608C582.556 56.1559 575.662 60.6281 570.517 64.9639C565.612 69.0815 561.945 74.4127 557.965 79.3484C553.97 84.2705 549.45 89.2607 546.564 94.5509C543.75 99.732 541.745 105.881 540.637 111.117C539.599 115.971 540.551 121.247 539.84 125.965C539.158 130.519 541.163 138.809 536.401 139.368Z" fill="#37485A" stroke="white" stroke-width="20.827" stroke-miterlimit="1.5" stroke-linecap="round" stroke-linejoin="round"/>
<path fill-rule="evenodd" clip-rule="evenodd" d="M427.803 526.438C427.803 521.911 424.122 518.244 419.601 518.244H375.904C371.384 518.244 367.717 521.911 367.717 526.438V542.813C367.717 547.34 371.384 551.008 375.904 551.008H419.601C424.122 551.008 427.803 547.34 427.803 542.813V526.438Z" fill="#D92626" stroke="#37485A" stroke-width="1.04413" stroke-miterlimit="1.5" stroke-linecap="round" stroke-linejoin="round"/>
<path fill-rule="evenodd" clip-rule="evenodd" d="M427.803 594.775C427.803 590.112 424.008 586.321 419.345 586.321H381.121C376.473 586.321 372.677 590.112 372.677 594.775V611.668C372.677 616.331 376.473 620.122 381.121 620.122H419.345C424.008 620.122 427.803 616.331 427.803 611.668V594.775Z" fill="#D92626" stroke="#37485A" stroke-width="1.04413" stroke-miterlimit="1.5" stroke-linecap="round" stroke-linejoin="round"/>
<path fill-rule="evenodd" clip-rule="evenodd" d="M892.733 523.52C892.733 518.462 888.625 514.358 883.564 514.358H845.511C840.464 514.358 836.356 518.462 836.356 523.52V541.845C836.356 546.904 840.464 551.008 845.511 551.008H883.564C888.625 551.008 892.733 546.904 892.733 541.845V523.52Z" fill="#D92626" stroke="#37485A" stroke-width="1.04413" stroke-miterlimit="1.5" stroke-linecap="round" stroke-linejoin="round"/>
<path fill-rule="evenodd" clip-rule="evenodd" d="M892.733 594.175C892.733 589.839 889.208 586.321 884.872 586.321H839.2C834.864 586.321 831.339 589.839 831.339 594.175V609.896C831.339 614.231 834.864 617.749 839.2 617.749H884.872C889.208 617.749 892.733 614.231 892.733 609.896V594.175Z" fill="#D92626" stroke="#37485A" stroke-width="1.04413" stroke-miterlimit="1.5" stroke-linecap="round" stroke-linejoin="round"/>
<path fill-rule="evenodd" clip-rule="evenodd" d="M728.687 388.557C728.687 385.506 726.207 383.022 723.159 383.022H712.092C709.035 383.022 706.563 385.506 706.563 388.557V413.002C706.563 416.053 709.035 418.537 712.092 418.537H723.159C726.207 418.537 728.687 416.053 728.687 413.002V388.557Z" fill="#D92626" stroke="#37485A" stroke-width="1.0372" stroke-miterlimit="1.5" stroke-linecap="round" stroke-linejoin="round"/>
<path fill-rule="evenodd" clip-rule="evenodd" d="M746.248 469.937C762.893 471.886 775.815 491.234 784.543 501.201C791.607 509.259 797.379 519.294 798.615 529.751C801.43 553.571 805.225 618.199 801.401 644.037C799.07 659.771 785.367 674.946 775.672 684.831C767.058 693.626 755.786 702.379 743.234 703.361C701.484 706.579 568.475 708.678 525.19 704.206C508.402 702.475 493.931 686.167 483.597 676.487C474.599 668.074 465.004 658.053 463.127 646.136C459.573 623.408 459.36 564.929 462.218 540.141C463.966 524.843 471.884 509.177 480.256 497.369C488.401 485.848 497.996 470.727 512.425 469.241C556.761 464.66 700.902 464.605 746.248 469.937Z" fill="white" stroke="#37485A" stroke-width="1.04413" stroke-miterlimit="1.5" stroke-linecap="round" stroke-linejoin="round"/>
<path fill-rule="evenodd" clip-rule="evenodd" d="M544.821 665.729C577.16 665.907 690.795 667.638 724.299 665.348C732.828 664.761 740.377 656.976 745.85 651.986C750.839 647.459 756.042 641.964 757.15 635.447C759.382 622.262 760.263 583.867 759.254 572.823C758.998 569.974 754.094 569.278 751.109 569.237C710.127 568.651 554.231 569.224 513.363 569.278C510.861 569.278 507.308 568.719 505.872 569.565C504.436 570.41 504.749 572.7 504.72 574.337C504.55 585.653 503 624.294 504.848 637.479C505.73 643.791 511.544 648.959 515.78 653.445C519.916 657.808 525.446 662.307 530.279 664.352C534.742 666.247 539.959 665.716 544.821 665.729Z" fill="#37485A" stroke="#37485A" stroke-width="1.04413" stroke-miterlimit="1.5" stroke-linecap="round" stroke-linejoin="round"/>
<path fill-rule="evenodd" clip-rule="evenodd" d="M672.529 139.229C656.394 141.97 594.133 141.029 577.856 137.484C571.161 136.012 573.464 124.367 574.872 117.918C576.464 110.597 582.789 99.2798 587.395 93.5533C591.119 88.9175 596.464 84.6091 602.463 83.5865C613.152 81.7731 640.602 80.4913 651.519 82.632C658.655 84.0363 664.54 92.9534 667.98 96.4302C669.913 98.3936 671.434 100.861 672.159 103.479C673.282 107.583 674.647 115.123 674.703 121.041C674.775 126.985 678.797 138.166 672.529 139.229Z" fill="white" stroke="#37485A" stroke-width="1.04413" stroke-miterlimit="1.5" stroke-linecap="round" stroke-linejoin="round"/>
<path fill-rule="evenodd" clip-rule="evenodd" d="M660.005 270.162C649.642 268.022 609.343 267.681 598.482 270.217C593.237 271.444 592.626 280.675 594.886 285.379C597.658 291.173 608.873 301.222 615.157 304.999C620.146 308.012 627.552 308.598 632.556 308.107C637.218 307.657 641.497 304.467 645.136 302.081C648.605 299.804 651.746 296.954 654.347 293.791C656.935 290.614 659.749 287.001 660.687 283.061C661.64 279.134 664.397 271.076 660.005 270.162Z" fill="#CC9F33" stroke="#37485A" stroke-width="1.04413" stroke-miterlimit="1.5" stroke-linecap="round" stroke-linejoin="round"/>
<path fill-rule="evenodd" clip-rule="evenodd" d="M415.848 184.319C411.825 183.951 405.642 195.186 403.026 201.867C399.828 210.034 397.482 222.659 396.658 233.294C395.265 251.142 393.332 292.059 394.668 308.994C395.393 318.17 398.79 327.605 404.69 334.858C413.247 345.371 436.361 364.255 445.956 372.054C450.831 376.008 455.892 381.475 462.26 381.639C518.665 383.18 724.882 383.698 784.358 381.298C796.895 380.793 808.523 373.253 819.043 367.241C829.505 361.269 840.195 352.529 847.487 345.275C853.77 339.017 861.105 332.241 862.768 323.705C865.696 308.585 864.829 273.585 865.056 254.578C865.227 239.58 865.71 220.573 864.133 209.597C863.066 202.194 859.513 194.722 855.604 188.709C851.765 182.819 844.942 175.116 840.692 173.561C836.897 172.17 830.94 175.593 830.144 179.424C828.026 189.595 828.254 216.169 827.998 234.562C827.713 253.855 830.485 281.247 828.453 295.195C827.202 303.785 821.559 311.53 815.802 318.224C809.86 325.123 802.184 333.345 792.802 336.617C781.899 340.421 764.571 340.517 750.327 341.035C727.91 341.826 688.947 341.471 658.257 341.389C616.081 341.28 527.393 341.158 497.272 340.34C490.576 340.162 483.782 338.785 477.57 336.522C471.372 334.245 465.231 330.564 460.071 326.705C454.982 322.887 450.206 318.483 446.61 313.343C442.729 307.753 439.004 300.322 436.787 293.232C434.356 285.419 433.02 275.493 432.011 266.508C430.845 256.023 430.575 240.739 429.765 230.336C429.082 221.569 429.48 211.765 427.149 204.103C424.974 196.876 419.871 184.687 415.848 184.319Z" fill="white" stroke="#37485A" stroke-width="1.04413" stroke-miterlimit="1.5" stroke-linecap="round" stroke-linejoin="round"/>
<path fill-rule="evenodd" clip-rule="evenodd" d="M384.746 414.485C384.987 400.536 384.476 382.048 384.433 372.64C384.405 367.773 386.153 362.469 384.433 358.037C382.699 353.62 378.335 347.607 374.027 346.08C369.735 344.553 362.001 345.044 358.633 348.875C347.985 360.969 323.891 394.046 310.145 418.698C296.215 443.649 283.89 476.181 275.134 498.583C268.168 516.403 261.004 534.483 257.607 553.149C254.195 571.814 252.177 594.502 254.678 610.577C256.868 624.635 265.354 637.874 272.603 649.613C279.682 661.039 289.007 674.346 298.233 680.973C306.52 686.917 317.779 687.981 328.013 689.386C339.528 690.967 358.121 692.003 367.318 690.462C373.615 689.399 380.239 684.695 383.153 680.087C386.067 675.492 387.745 667.843 384.76 662.839C381.661 657.671 371.454 651.659 364.631 649.123C358.121 646.709 343.778 654.331 343.778 647.636C343.749 610.618 339.84 523.916 337.992 515.285C335.519 503.682 349.634 494.261 354.766 490.361C363.181 483.953 378.591 481.103 382.685 470.768C387.674 458.129 384.447 430.846 384.746 414.485Z" fill="white" stroke="#37485A" stroke-width="1.04413" stroke-miterlimit="1.5" stroke-linecap="round" stroke-linejoin="round"/>
<path fill-rule="evenodd" clip-rule="evenodd" d="M869.747 468.096C868.113 447.739 872.093 376.908 872.988 356.442C873.159 352.665 872.747 347.13 875.135 345.275C877.523 343.421 884.233 342.739 887.332 345.275C893.558 350.375 905.512 364.759 912.52 375.885C922.144 391.128 935.108 416.039 945.002 436.763C955.208 458.102 965.571 485.862 973.688 503.955C979.956 517.917 989.324 532.138 993.759 545.309C997.853 557.43 999.331 571.228 1000.35 582.995C1001.29 593.943 1002.44 605.232 999.829 615.922C996.929 627.784 990.262 643.682 982.927 654.153C975.99 664.079 965.144 672.628 955.819 678.805C947.177 684.545 937.368 689.276 927.048 691.226C916.074 693.285 898.092 693.503 889.961 691.226C884.062 689.562 879.982 682.827 878.305 677.509C876.627 672.192 877.054 664.448 879.911 659.321C882.768 654.194 889.037 648.863 895.434 646.75C902.058 644.555 918.263 653.785 919.671 646.15C924.02 622.589 924.049 532.069 921.518 505.359C920.708 496.906 911.554 490.934 904.475 485.834C899.727 482.426 890.587 481.103 882.825 478.553C876.485 476.481 870.188 473.522 869.747 468.096Z" fill="white" stroke="#37485A" stroke-width="1.04413" stroke-miterlimit="1.5" stroke-linecap="round" stroke-linejoin="round"/>
<path fill-rule="evenodd" clip-rule="evenodd" d="M510.392 514.931C509.383 518.012 509.682 524.898 510.691 528.279C511.529 531.115 514.316 533.787 516.434 535.205C518.381 536.514 520.997 536.76 523.385 536.801C539.803 537.046 584.666 536.664 614.915 536.664C644.909 536.678 681.541 536.828 704.896 536.814C721.627 536.8 746.646 537.728 755.075 536.582C757.35 536.282 756.141 532.11 755.516 529.997C754.521 526.656 751.522 520.303 749.091 516.539C746.888 513.131 744.073 509.531 740.903 507.432C737.776 505.359 733.881 504.118 730.071 503.941C710.198 502.959 651.576 501.746 621.61 501.61C597.829 501.501 564.58 502.7 550.294 503.123C545.503 503.273 540.102 503.628 535.951 504.173C532.411 504.637 528.673 505.455 525.46 506.395C522.461 507.282 519.248 508.4 516.732 509.831C514.358 511.168 511.217 512.408 510.392 514.931Z" fill="#37485A" stroke="#37485A" stroke-width="1.04413" stroke-miterlimit="1.5" stroke-linecap="round" stroke-linejoin="round"/>
</svg>
