<svg width="2251" height="2250" viewBox="0 0 2251 2250" fill="none" xmlns="http://www.w3.org/2000/svg">
<path fill-rule="evenodd" clip-rule="evenodd" d="M1716.31 829.796C1716.31 666.853 1584.01 534.565 1421.07 534.565L830.434 534.565C667.493 534.565 535.204 666.853 535.204 829.796L535.204 1420.26C535.204 1583.19 667.493 1715.48 830.434 1715.48L1421.07 1715.48C1584.01 1715.48 1716.31 1583.19 1716.31 1420.26L1716.31 829.796Z" fill="#37485A"/>
<path fill-rule="evenodd" clip-rule="evenodd" d="M1716.31 829.796C1716.31 666.853 1584.01 534.565 1421.07 534.565L830.434 534.565C667.493 534.565 535.204 666.853 535.204 829.796L535.204 1420.26C535.204 1583.19 667.493 1715.48 830.434 1715.48L1421.07 1715.48C1584.01 1715.48 1716.31 1583.19 1716.31 1420.26L1716.31 829.796Z" stroke="#F20D0D" stroke-width="29.1373" stroke-miterlimit="1.5" stroke-linecap="round" stroke-linejoin="round"/>
<path fill-rule="evenodd" clip-rule="evenodd" d="M1716.31 829.796C1716.31 666.853 1584.01 534.565 1421.07 534.565L830.434 534.565C667.493 534.565 535.204 666.853 535.204 829.796L535.204 1420.26C535.204 1583.19 667.493 1715.48 830.434 1715.48L1421.07 1715.48C1584.01 1715.48 1716.31 1583.19 1716.31 1420.26L1716.31 829.796Z" fill="#D92626"/>
<path d="M535.201 1313.59C1714.59 1313.9 1716.3 1314.06 1716.3 1314.06" stroke="#37485A" stroke-width="13.7398" stroke-miterlimit="1.5" stroke-linecap="round" stroke-linejoin="round"/>
<path fill-rule="evenodd" clip-rule="evenodd" d="M1716.31 829.796C1716.31 666.853 1584.01 534.565 1421.07 534.565L830.434 534.565C667.493 534.565 535.204 666.853 535.204 829.796L535.204 1420.26C535.204 1583.19 667.493 1715.48 830.434 1715.48L1421.07 1715.48C1584.01 1715.48 1716.31 1583.19 1716.31 1420.26L1716.31 829.796Z" stroke="#37485A" stroke-width="29.1373" stroke-miterlimit="1.5" stroke-linecap="round" stroke-linejoin="round"/>
<path fill-rule="evenodd" clip-rule="evenodd" d="M1716.3 1314.06L1716.3 1437.84L1695.25 1530.71L1653.16 1598.24L1591.66 1661.41L1504.54 1700.29C1504.54 1700.29 1360.4 1715.08 1353.24 1715.49C1346.06 1715.9 1232.61 1715.49 1232.61 1715.49L898.507 1715.49L718.989 1677.7L638.665 1622.38L575.647 1539.82L555.098 1473.66L551.539 1384.58L549.121 1314.06" fill="#37485A"/>
<path d="M1716.3 1314.06L1716.3 1437.84L1695.25 1530.71L1653.16 1598.24L1591.66 1661.41L1504.54 1700.29C1504.54 1700.29 1360.4 1715.08 1353.24 1715.49C1346.06 1715.9 1232.61 1715.49 1232.61 1715.49L898.507 1715.49L718.989 1677.7L638.665 1622.38L575.647 1539.82L555.098 1473.66L551.539 1384.58L549.121 1314.06" stroke="#37485A" stroke-width="29.1644" stroke-miterlimit="1.5" stroke-linecap="round" stroke-linejoin="round"/>
<path d="M906.93 1471.83C906.93 1482.77 904.856 1492.08 900.707 1499.76C896.592 1507.43 890.974 1513.3 883.853 1517.35C876.765 1521.36 868.795 1523.37 859.944 1523.37C851.026 1523.37 843.024 1521.35 835.936 1517.3C828.848 1513.25 823.246 1507.38 819.131 1499.71C815.015 1492.03 812.957 1482.74 812.957 1471.83C812.957 1460.89 815.015 1451.58 819.131 1443.9C823.246 1436.23 828.848 1430.38 835.936 1426.36C843.024 1422.31 851.026 1420.29 859.944 1420.29C868.795 1420.29 876.765 1422.31 883.853 1426.36C890.974 1430.38 896.592 1436.23 900.707 1443.9C904.856 1451.58 906.93 1460.89 906.93 1471.83ZM885.421 1471.83C885.421 1464.74 884.359 1458.76 882.236 1453.9C880.146 1449.03 877.19 1445.34 873.368 1442.82C869.547 1440.31 865.072 1439.05 859.944 1439.05C854.815 1439.05 850.341 1440.31 846.519 1442.82C842.697 1445.34 839.725 1449.03 837.602 1453.9C835.511 1458.76 834.466 1464.74 834.466 1471.83C834.466 1478.92 835.511 1484.89 837.602 1489.76C839.725 1494.63 842.697 1498.32 846.519 1500.83C850.341 1503.35 854.815 1504.61 859.944 1504.61C865.072 1504.61 869.547 1503.35 873.368 1500.83C877.19 1498.32 880.146 1494.63 882.236 1489.76C884.359 1484.89 885.421 1478.92 885.421 1471.83ZM917.206 1546.2L917.206 1505.1L924.017 1505.1C926.336 1503.43 928.459 1501.08 930.386 1498.04C932.313 1494.97 933.963 1490.74 935.335 1485.35C936.706 1479.93 937.686 1472.84 938.274 1464.09L941.116 1421.66L1007.5 1421.66L1007.5 1505.1L1018.48 1505.1L1018.48 1546.11L998.097 1546.11L998.097 1522L937.588 1522L937.588 1546.2L917.206 1546.2ZM948.514 1505.1L987.122 1505.1L987.122 1439.15L960.224 1439.15L958.656 1464.09C958.232 1470.72 957.529 1476.6 956.549 1481.73C955.602 1486.85 954.443 1491.35 953.071 1495.2C951.732 1499.02 950.213 1502.32 948.514 1505.1ZM1031.38 1522L1031.38 1421.66L1098.99 1421.66L1098.99 1439.15L1052.59 1439.15L1052.59 1463.06L1095.51 1463.06L1095.51 1480.55L1052.59 1480.55L1052.59 1504.51L1099.19 1504.51L1099.19 1522L1031.38 1522ZM1192.29 1421.66L1192.29 1522L1171.71 1522L1171.71 1421.66L1192.29 1421.66ZM1111.1 1522L1142.56 1469.09L1112.43 1421.66L1138.54 1421.66L1161.08 1462.96L1203.46 1462.96L1225.41 1421.66L1251.43 1421.66L1222.03 1468.94L1252.9 1522L1227.57 1522L1206.35 1482.56L1157.99 1482.56L1136.24 1522L1111.1 1522ZM1260.11 1546.2L1260.11 1505.1L1266.92 1505.1C1269.24 1503.43 1271.36 1501.08 1273.29 1498.04C1275.22 1494.97 1276.87 1490.74 1278.24 1485.35C1279.61 1479.93 1280.59 1472.84 1281.18 1464.09L1284.02 1421.66L1350.41 1421.66L1350.41 1505.1L1361.38 1505.1L1361.38 1546.11L1341 1546.11L1341 1522L1280.49 1522L1280.49 1546.2L1260.11 1546.2ZM1291.42 1505.1L1330.03 1505.1L1330.03 1439.15L1303.13 1439.15L1301.56 1464.09C1301.14 1470.72 1300.43 1476.6 1299.45 1481.73C1298.51 1486.85 1297.35 1491.35 1295.97 1495.2C1294.64 1499.02 1293.12 1502.32 1291.42 1505.1ZM1391.58 1522L1368.84 1522L1403.48 1421.66L1430.82 1421.66L1465.41 1522L1442.68 1522L1417.54 1444.59L1416.76 1444.59L1391.58 1522ZM1390.16 1482.56L1443.85 1482.56L1443.85 1499.12L1390.16 1499.12L1390.16 1482.56Z" fill="white"/>
<path fill-rule="evenodd" clip-rule="evenodd" d="M872.345 1265.92L752.521 1264.73L758.364 1042.84C758.364 1042.84 790.68 876.242 804.595 829.512C811.778 805.39 829.201 780.605 841.821 762.465C852.467 747.138 864.048 731.381 880.266 720.671C898.202 708.828 927.085 697.924 949.372 691.409C970.153 685.336 1014.01 681.582 1014.01 681.582L1018.06 602.625C1018.06 602.625 1022.83 591.537 1028.07 588.561C1035.33 584.446 1049.76 578.801 1061.55 577.93C1086.56 576.081 1150.61 574.736 1178.16 577.47C1195.45 579.187 1218.76 580.515 1226.82 594.343C1236.37 610.723 1235.42 675.747 1235.42 675.747C1235.42 675.747 1286.86 683.498 1310.35 692.091C1333.84 700.685 1359.62 713.585 1376.39 727.307C1391.85 739.974 1400.22 758.237 1410.87 774.419C1425.94 797.373 1455.7 831.984 1466.92 865.026C1479.83 903.038 1483.92 956.392 1488.3 1002.49C1493.63 1058.5 1497.38 1156.88 1498.86 1201.1C1499.6 1223.34 1497.16 1267.8 1497.16 1267.8L1378.6 1264.9L1378.39 886.758C1378.39 886.758 1379.85 873.551 1377.94 868.595C1376.07 863.795 1372.41 858.059 1366.87 857.025C1358.51 855.469 1335.3 854.673 1327.8 859.25C1320.31 863.828 1322.11 875.892 1321.86 884.487C1320.85 917.996 1320.98 1001.72 1321.75 1060.33C1322.58 1124.03 1326.86 1266.71 1326.86 1266.71L928.033 1266.17L928.786 882.817C928.786 882.817 930.247 876.202 928.531 873.497C926.543 870.334 921.935 865.05 916.8 863.836C909.39 862.083 890.552 859.038 884.106 862.989C877.661 866.939 878.384 879.164 878.143 887.535C876.186 954.69 872.345 1265.92 872.345 1265.92Z" fill="#37485A" stroke="white" stroke-width="31.1516" stroke-miterlimit="1.5" stroke-linecap="round" stroke-linejoin="round"/>
<path d="M843.701 1186.51L784.461 1185.87" stroke="white" stroke-width="16.5307" stroke-miterlimit="1.5" stroke-linecap="round" stroke-linejoin="round"/>
<path d="M1468.74 1187.14L1409.5 1186.5" stroke="white" stroke-width="16.5307" stroke-miterlimit="1.5" stroke-linecap="round" stroke-linejoin="round"/>
<path d="M1276.77 834.633L1217.53 833.998" stroke="white" stroke-width="12.3955" stroke-miterlimit="1.5" stroke-linecap="round" stroke-linejoin="round"/>
<path d="M1172.67 674.472L1128.65 714.107" stroke="white" stroke-width="10.3271" stroke-miterlimit="1.5" stroke-linecap="round" stroke-linejoin="round"/>
<path d="M1123.47 714.109L1076.82 677.612" stroke="white" stroke-width="10.3372" stroke-miterlimit="1.5" stroke-linecap="round" stroke-linejoin="round"/>
<path d="M1125.76 718.7L1126.04 1239.3" stroke="white" stroke-width="6.49565" stroke-miterlimit="1.5" stroke-linecap="round" stroke-linejoin="round"/>
<path d="M1022.71 1058.8L975.918 1132.83" stroke="#D92626" stroke-width="16.6653" stroke-miterlimit="1.5" stroke-linecap="round" stroke-linejoin="round"/>
<path d="M1227.72 1053.42L1278.15 1125.03" stroke="#D92626" stroke-width="16.6654" stroke-miterlimit="1.5" stroke-linecap="round" stroke-linejoin="round"/>
</svg>
