<svg width="1202" height="1205" viewBox="0 0 1202 1205" fill="none" xmlns="http://www.w3.org/2000/svg">
<path fill-rule="evenodd" clip-rule="evenodd" d="M1187.32 308.046C1187.32 146.361 1056.05 15.0925 894.36 15.0925H308.451C146.764 15.0925 15.4946 146.361 15.4946 308.046V896.833C15.4946 1058.52 146.764 1189.79 308.451 1189.79H894.36C1056.05 1189.79 1187.32 1058.52 1187.32 896.833V308.046Z" stroke="#F20D0D" stroke-width="29.1342" stroke-miterlimit="1.5" stroke-linecap="round" stroke-linejoin="round"/>
<path fill-rule="evenodd" clip-rule="evenodd" d="M1178.03 314.449C1178.03 152.764 1046.76 21.4954 885.07 21.4954H299.161C137.474 21.4954 6.20459 152.764 6.20459 314.449V903.236C6.20459 1064.92 137.474 1196.19 299.161 1196.19H885.07C1046.76 1196.19 1178.03 1064.92 1178.03 903.236V314.449Z" fill="#D92626"/>
<path d="M15.4934 790.022C1185.62 790.327 1187.31 790.49 1187.31 790.49" stroke="#37485A" stroke-width="13.7569" stroke-miterlimit="1.5" stroke-linecap="round" stroke-linejoin="round"/>
<path fill-rule="evenodd" clip-rule="evenodd" d="M1187.32 308.046C1187.32 146.361 1056.05 15.0925 894.36 15.0925H308.451C146.764 15.0925 15.4946 146.361 15.4946 308.046V896.833C15.4946 1058.52 146.764 1189.79 308.451 1189.79H894.36C1056.05 1189.79 1187.32 1058.52 1187.32 896.833V308.046Z" stroke="#37485A" stroke-width="29.1342" stroke-miterlimit="1.5" stroke-linecap="round" stroke-linejoin="round"/>
<path fill-rule="evenodd" clip-rule="evenodd" d="M1187.31 790.488V913.617L1166.42 1006L1124.67 1073.17L1063.65 1136.01L977.212 1174.68C977.212 1174.68 834.211 1189.39 827.101 1189.8C819.98 1190.21 707.427 1189.8 707.427 1189.8H375.945L197.838 1152.22L118.145 1097.18L55.6224 1015.06L35.235 949.245L31.7041 860.639L29.3042 790.488" fill="#37485A"/>
<path d="M1187.31 790.488V913.617L1166.42 1006L1124.67 1073.17L1063.65 1136.01L977.212 1174.68C977.212 1174.68 834.211 1189.39 827.101 1189.8C819.98 1190.21 707.427 1189.8 707.427 1189.8H375.945L197.838 1152.22L118.145 1097.18L55.6224 1015.06L35.235 949.245L31.7041 860.639L29.3042 790.488" stroke="#37485A" stroke-width="29.1717" stroke-miterlimit="1.5" stroke-linecap="round" stroke-linejoin="round"/>
<path d="M211.424 1014L179.186 971.229H171.935V1014H150.721V913.661H171.935V953.738H176.197L209.513 913.661H235.92L196.775 960.205L237.733 1014H211.424ZM248.401 1014V913.661H287.988C295.598 913.661 302.082 915.115 307.439 918.022C312.795 920.896 316.878 924.897 319.687 930.025C322.529 935.121 323.949 941 323.949 947.663C323.949 954.326 322.512 960.205 319.638 965.301C316.764 970.396 312.599 974.364 307.145 977.206C301.723 980.048 295.158 981.468 287.449 981.468H262.218V964.468H284.02C288.102 964.468 291.467 963.765 294.112 962.361C296.791 960.924 298.783 958.948 300.09 956.433C301.429 953.885 302.098 950.962 302.098 947.663C302.098 944.331 301.429 941.424 300.09 938.942C298.783 936.427 296.791 934.484 294.112 933.112C291.434 931.707 288.037 931.005 283.922 931.005H269.616V1014H248.401ZM429.934 963.831C429.934 974.773 427.86 984.081 423.712 991.757C419.597 999.433 413.979 1005.3 406.858 1009.35C399.771 1013.36 391.801 1015.37 382.95 1015.37C374.033 1015.37 366.031 1013.35 358.943 1009.3C351.855 1005.25 346.254 999.384 342.138 991.708C338.023 984.032 335.965 974.74 335.965 963.831C335.965 952.889 338.023 943.58 342.138 935.904C346.254 928.229 351.855 922.382 358.943 918.365C366.031 914.315 374.033 912.29 382.95 912.29C391.801 912.29 399.771 914.315 406.858 918.365C413.979 922.382 419.597 928.229 423.712 935.904C427.86 943.58 429.934 952.889 429.934 963.831ZM408.426 963.831C408.426 956.743 407.365 950.766 405.242 945.899C403.151 941.032 400.195 937.342 396.374 934.827C392.552 932.312 388.078 931.054 382.95 931.054C377.822 931.054 373.347 932.312 369.525 934.827C365.704 937.342 362.732 941.032 360.609 945.899C358.518 950.766 357.473 956.743 357.473 963.831C357.473 970.918 358.518 976.896 360.609 981.762C362.732 986.629 365.704 990.32 369.525 992.835C373.347 995.35 377.822 996.607 382.95 996.607C388.078 996.607 392.552 995.35 396.374 992.835C400.195 990.32 403.151 986.629 405.242 981.762C407.365 976.896 408.426 970.918 408.426 963.831ZM534.18 948.79H512.721C512.329 946.013 511.529 943.547 510.32 941.392C509.112 939.203 507.56 937.342 505.666 935.806C503.772 934.271 501.583 933.096 499.101 932.279C496.651 931.462 493.989 931.054 491.115 931.054C485.922 931.054 481.398 932.344 477.544 934.925C473.69 937.472 470.701 941.196 468.578 946.095C466.455 950.962 465.393 956.874 465.393 963.831C465.393 970.984 466.455 976.994 468.578 981.86C470.734 986.727 473.739 990.401 477.593 992.884C481.447 995.366 485.905 996.607 490.968 996.607C493.81 996.607 496.439 996.232 498.856 995.48C501.306 994.729 503.478 993.635 505.372 992.198C507.266 990.728 508.834 988.948 510.075 986.858C511.349 984.767 512.231 982.383 512.721 979.705L534.18 979.803C533.625 984.408 532.237 988.85 530.016 993.129C527.827 997.375 524.871 1001.18 521.148 1004.54C517.457 1007.88 513.048 1010.52 507.92 1012.48C502.824 1014.41 497.059 1015.37 490.625 1015.37C481.675 1015.37 473.673 1013.35 466.618 1009.3C459.596 1005.25 454.043 999.384 449.96 991.708C445.91 984.032 443.885 974.74 443.885 963.831C443.885 952.889 445.943 943.58 450.058 935.904C454.174 928.229 459.759 922.382 466.814 918.365C473.869 914.315 481.806 912.29 490.625 912.29C496.439 912.29 501.828 913.106 506.793 914.739C511.79 916.372 516.216 918.757 520.07 921.892C523.924 924.995 527.06 928.8 529.477 933.308C531.926 937.815 533.494 942.976 534.18 948.79ZM637.924 948.79H616.465C616.073 946.013 615.272 943.547 614.064 941.392C612.855 939.203 611.304 937.342 609.41 935.806C607.515 934.271 605.327 933.096 602.844 932.279C600.395 931.462 597.733 931.054 594.858 931.054C589.665 931.054 585.141 932.344 581.287 934.925C577.433 937.472 574.445 941.196 572.322 946.095C570.198 950.962 569.137 956.874 569.137 963.831C569.137 970.984 570.198 976.994 572.322 981.86C574.477 986.727 577.482 990.401 581.336 992.884C585.19 995.366 589.649 996.607 594.712 996.607C597.553 996.607 600.182 996.232 602.599 995.48C605.049 994.729 607.221 993.635 609.116 992.198C611.01 990.728 612.578 988.948 613.819 986.858C615.093 984.767 615.975 982.383 616.465 979.705L637.924 979.803C637.368 984.408 635.98 988.85 633.759 993.129C631.571 997.375 628.615 1001.18 624.891 1004.54C621.201 1007.88 616.791 1010.52 611.663 1012.48C606.568 1014.41 600.803 1015.37 594.369 1015.37C585.419 1015.37 577.417 1013.35 570.362 1009.3C563.339 1005.25 557.787 999.384 553.704 991.708C549.654 984.032 547.629 974.74 547.629 963.831C547.629 952.889 549.687 943.58 553.802 935.904C557.917 928.229 563.503 922.382 570.558 918.365C577.613 914.315 585.55 912.29 594.369 912.29C600.182 912.29 605.572 913.106 610.536 914.739C615.534 916.372 619.959 918.757 623.814 921.892C627.668 924.995 630.803 928.8 633.22 933.308C635.67 937.815 637.238 942.976 637.924 948.79ZM745.342 963.831C745.342 974.773 743.268 984.081 739.12 991.757C735.004 999.433 729.386 1005.3 722.266 1009.35C715.178 1013.36 707.209 1015.37 698.357 1015.37C689.44 1015.37 681.438 1013.35 674.35 1009.3C667.263 1005.25 661.661 999.384 657.546 991.708C653.43 984.032 651.372 974.74 651.372 963.831C651.372 952.889 653.43 943.58 657.546 935.904C661.661 928.229 667.263 922.382 674.35 918.365C681.438 914.315 689.44 912.29 698.357 912.29C707.209 912.29 715.178 914.315 722.266 918.365C729.386 922.382 735.004 928.229 739.12 935.904C743.268 943.58 745.342 952.889 745.342 963.831ZM723.834 963.831C723.834 956.743 722.772 950.766 720.649 945.899C718.559 941.032 715.603 937.342 711.781 934.827C707.96 932.312 703.485 931.054 698.357 931.054C693.229 931.054 688.754 932.312 684.933 934.827C681.111 937.342 678.139 941.032 676.016 945.899C673.926 950.766 672.88 956.743 672.88 963.831C672.88 970.918 673.926 976.896 676.016 981.762C678.139 986.629 681.111 990.32 684.933 992.835C688.754 995.35 693.229 996.607 698.357 996.607C703.485 996.607 707.96 995.35 711.781 992.835C715.603 990.32 718.559 986.629 720.649 981.762C722.772 976.896 723.834 970.918 723.834 963.831ZM761.056 1014V913.661H801.231C808.613 913.661 814.77 914.756 819.702 916.944C824.634 919.132 828.341 922.17 830.823 926.057C833.305 929.911 834.547 934.353 834.547 939.383C834.547 943.302 833.763 946.748 832.195 949.721C830.627 952.66 828.471 955.077 825.728 956.972C823.017 958.833 819.914 960.156 816.419 960.94V961.92C820.24 962.083 823.817 963.161 827.149 965.154C830.513 967.146 833.24 969.939 835.33 973.531C837.421 977.092 838.466 981.338 838.466 986.27C838.466 991.594 837.143 996.346 834.498 1000.53C831.885 1004.67 828.014 1007.96 822.886 1010.37C817.758 1012.79 811.438 1014 803.926 1014H761.056ZM782.271 996.656H799.565C805.477 996.656 809.789 995.529 812.499 993.276C815.21 990.989 816.566 987.952 816.566 984.163C816.566 981.387 815.896 978.937 814.557 976.814C813.218 974.691 811.307 973.025 808.825 971.817C806.375 970.608 803.452 970.004 800.055 970.004H782.271V996.656ZM782.271 955.649H797.997C800.904 955.649 803.485 955.143 805.738 954.13C808.025 953.085 809.821 951.615 811.128 949.721C812.467 947.826 813.136 945.556 813.136 942.911C813.136 939.285 811.846 936.362 809.266 934.141C806.718 931.92 803.093 930.809 798.389 930.809H782.271V955.649ZM912.973 1014L880.735 971.229H873.484V1014H852.27V913.661H873.484V953.738H877.746L911.062 913.661H937.469L898.324 960.205L939.282 1014H912.973ZM949.951 913.661H971.116V976.765H971.949L1015.31 913.661H1033.88V1014H1012.66V950.847H1011.93L968.323 1014H949.951V913.661Z" fill="white"/>
<path fill-rule="evenodd" clip-rule="evenodd" d="M319.044 256.028C304.448 261.319 289.643 271.138 278.796 283.156C267.066 296.14 255.337 315.397 248.723 333.93C241.028 355.529 235.571 387.812 232.584 412.75C229.773 436.191 233.951 466.684 230.798 483.556C228.659 495.007 216.985 502.826 213.656 513.986C210.04 526.073 207.692 542.489 209.147 556.082C210.591 569.677 214.703 583.987 222.354 595.552C232.154 610.365 256.164 634.32 267.937 644.966C275.103 651.439 283.381 659.193 293.027 659.42C399.892 661.943 793.221 663.731 909.159 660.107C936.663 659.247 964.278 647.903 988.629 637.672C1012.35 627.709 1039.29 612.077 1055.3 598.727C1068.23 587.94 1080.45 573.898 1084.66 557.569C1090.15 536.224 1092.44 493.207 1088.27 470.654C1084.86 452.209 1072.47 435.561 1059.61 422.259C1046.75 408.957 1029.3 397.159 1011.11 390.843C986.138 382.173 938.482 378.544 909.831 370.244C885.358 363.154 861.756 352.871 839.179 341.041C812.91 327.271 780.368 306.688 752.18 287.626C721.071 266.592 676.358 232.06 652.514 214.834C638.172 204.471 625.638 190.023 609.113 184.271C592.599 178.519 570.596 175.197 553.41 180.32C536.223 185.442 517.042 204.385 505.985 215.006C497.651 223.004 491.334 234.65 487.057 244.041C483.177 252.574 485.646 263.643 480.322 271.356C474.832 279.32 462.11 286.659 454.063 291.828C447.217 296.226 439.456 305.744 432.059 302.366C420.617 297.144 396.387 268.993 385.451 260.501C379.895 256.187 373.424 251.883 366.413 251.41C355.356 250.665 333.65 250.737 319.044 256.028Z" fill="white" stroke="white" stroke-width="3.54299" stroke-miterlimit="1.5" stroke-linecap="round" stroke-linejoin="round"/>
<path fill-rule="evenodd" clip-rule="evenodd" d="M568.382 213.908C561.712 214.613 555.252 218.116 550.192 222.534C544.03 227.916 534.693 237.233 531.408 246.205C528.112 255.178 534.88 267.35 530.438 276.368C525.025 287.329 511.157 302.09 498.976 311.975C486.795 321.86 472.122 330.961 457.35 335.678C442.567 340.393 423.815 343.26 410.3 340.272C397.017 337.337 384.494 325.647 376.237 317.752C369.182 311.011 367.197 297.221 360.737 292.903C354.277 288.586 344.654 288.873 337.477 291.846C329.033 295.347 317.381 304.739 310.05 313.909C302.455 323.419 295.884 336.384 291.883 348.908C287.242 363.373 284.012 383.226 282.27 400.698C279.746 426.057 280.716 479.815 276.725 501.06C274.708 511.804 261.942 518.237 258.315 528.17C254.699 538.104 253.2 550.839 255.008 560.662C256.827 570.484 262.24 579.923 269.196 587.105C276.571 594.721 287.363 606.008 299.258 606.364C372.709 608.558 579.538 609.378 738.986 608.505C811.313 608.108 873.895 607.363 909.844 606.24C937.679 605.372 971.026 592.96 990.582 584.774C1004.68 578.874 1018.94 565.205 1027.18 557.13C1033.01 551.426 1038.65 544.364 1040.1 536.328C1042.7 521.978 1047.73 487.598 1042.8 471.037C1038.34 456.031 1024.73 443.516 1010.55 436.963C992.842 428.787 959.892 427.025 936.61 421.983C914.606 417.219 891.974 414.411 870.809 406.71C848.937 398.748 825.148 385.698 805.338 374.208C786.708 363.404 768.673 348.737 751.983 337.775C736.594 327.669 720.102 319.234 705.187 308.438C688.475 296.341 666.35 277.191 651.711 265.198C640.169 255.739 627.557 244.299 617.36 236.478C608.784 229.901 598.697 222.038 590.539 218.277C583.705 215.125 575.106 213.199 568.382 213.908Z" fill="#37485A" stroke="#37485A" stroke-width="3.54299" stroke-miterlimit="1.5" stroke-linecap="round" stroke-linejoin="round"/>
<path fill-rule="evenodd" clip-rule="evenodd" d="M337.676 326.284C333.398 327.568 326.012 335.888 322.628 342.419C317.811 351.687 309.025 373.721 308.782 381.897C308.617 387.112 316.3 389.522 321.129 391.478C327.942 394.244 340.409 395.35 349.691 398.49C360.759 402.233 375.531 407.491 387.547 413.932C399.773 420.493 412.748 428.006 423.099 437.856C435.512 449.665 452.962 480.19 462.046 484.788C469.399 488.519 472.177 471.731 477.535 465.444C484.336 457.468 494.511 445.951 502.834 436.927C510.882 428.216 519.789 419.101 527.494 411.305C534.583 404.141 542.266 397.009 549.079 390.15C555.605 383.577 562.341 376.632 568.371 370.15C574.114 363.971 581.037 356.034 585.226 351.263C588.026 348.066 596.305 344.709 593.472 341.531C587.96 335.333 565.449 314.148 552.166 314.08C538.882 314.013 525.896 332.649 513.781 341.123C502.393 349.096 489.01 359.137 479.519 364.921C472.353 369.286 465.1 374.4 456.832 375.823C445.907 377.702 425.403 377.597 413.982 376.199C404.998 375.101 396.08 371.371 388.275 367.434C380.591 363.556 373.812 358.027 367.142 352.575C360.473 347.121 353.186 339.096 348.281 334.714C344.907 331.709 341.953 325 337.676 326.284Z" fill="#D92626" stroke="#37485A" stroke-width="3.54299" stroke-miterlimit="1.5" stroke-linecap="round" stroke-linejoin="round"/>
<path fill-rule="evenodd" clip-rule="evenodd" d="M304.538 434.478C303.678 446.178 304.803 484.275 305.508 495.715C305.685 498.408 306.092 502.943 308.771 503.119C329.595 504.478 409.959 506.187 430.419 503.871C435.28 503.322 433.946 493.491 431.543 489.229C428.192 483.272 418.127 474.315 410.3 468.13C401.305 461.025 388.396 453.151 377.582 446.6C367.087 440.25 356.537 432.337 345.381 428.823C334.28 425.328 317.436 424.577 310.623 425.52C307.052 426.014 304.792 430.874 304.538 434.478Z" stroke="#37485A" stroke-width="3.54299" stroke-miterlimit="1.5" stroke-linecap="round" stroke-linejoin="round"/>
<path fill-rule="evenodd" clip-rule="evenodd" d="M649.561 379.033C645.901 391.296 613.723 415.866 600.097 430.585C589.018 442.551 575.514 457.834 567.831 467.35C562.682 473.725 557.733 482.136 554.007 487.681C551.108 491.975 550.38 499.169 545.419 500.626C537.173 503.051 510.65 505.373 504.499 502.226C498.348 499.079 505.116 487.804 508.523 481.742C513.505 472.896 525.29 459.632 534.362 449.15C543.832 438.197 554.955 426.965 565.394 416.026C575.823 405.091 587.541 393.346 596.989 383.51C605.4 374.74 613.282 357.754 622.046 357.008C630.799 356.263 652.923 367.759 649.561 379.033Z" fill="white" stroke="#37485A" stroke-width="3.54299" stroke-miterlimit="1.5" stroke-linecap="round" stroke-linejoin="round"/>
<path fill-rule="evenodd" clip-rule="evenodd" d="M671.057 380.245C660.871 383.004 649.925 404.847 639.529 416.256C629.476 427.286 618.915 437.844 608.674 448.699C597.44 460.607 578.887 479.807 572.141 487.703C570.123 490.052 568.294 493.402 568.139 496.077C567.985 498.752 568.536 503.206 571.226 503.751C578.601 505.24 603.195 508.083 612.389 505.011C620.017 502.464 621.153 491.435 626.389 485.323C632.948 477.68 643.233 467.836 651.711 459.153C660.662 449.993 671.95 438.338 680.086 430.362C686.744 423.842 697.096 416.415 700.524 411.305C702.674 408.095 703.313 402.505 700.656 399.701C695.751 394.525 681.243 377.486 671.057 380.245Z" fill="#D92626" stroke="#37485A" stroke-width="3.54299" stroke-miterlimit="1.5" stroke-linecap="round" stroke-linejoin="round"/>
<path fill-rule="evenodd" clip-rule="evenodd" d="M717.864 417.471C710.732 421.53 700.557 435.229 692.918 443.163C685.917 450.434 678.862 457.657 672.027 465.078C665.16 472.529 655.8 481.97 651.711 487.863C649.197 491.496 647.786 497.027 647.488 500.441C647.246 503.19 647.18 507.982 649.903 508.355C659.78 509.708 691.363 513.736 706.763 508.555C721.712 503.526 731.688 486.845 742.304 477.267C751.818 468.682 765.719 458.213 770.459 451.085C773.512 446.484 774.802 438.257 770.757 434.5C764.958 429.12 744.509 421.647 735.69 418.809C730.024 416.983 723.046 414.522 717.864 417.471Z" fill="white" stroke="#37485A" stroke-width="3.54299" stroke-miterlimit="1.5" stroke-linecap="round" stroke-linejoin="round"/>
<path fill-rule="evenodd" clip-rule="evenodd" d="M1006.93 476.163C1003.8 469.75 995.598 457.424 986.007 454.375C973.462 450.382 945.66 453.622 931.616 452.206C921.496 451.186 911.586 448.497 901.752 445.882C891.765 443.225 880.157 437.838 871.712 436.272C864.933 435.017 857.216 433.422 851.043 436.483C840.251 441.836 817.056 459.682 806.948 468.389C800.322 474.093 793.157 482.391 790.368 488.723C787.998 494.108 784.68 504.418 790.214 506.381C798.504 509.324 823.483 506.381 840.118 506.381C866.95 506.381 926.324 507.373 951.183 506.381C964.026 505.87 980.341 502.689 989.281 500.435C994.87 499.026 1001.88 496.897 1004.82 492.852C1007.77 488.807 1009.39 481.199 1006.93 476.163Z" fill="white" stroke="#37485A" stroke-width="3.54299" stroke-miterlimit="1.5" stroke-linecap="round" stroke-linejoin="round"/>
<path fill-rule="evenodd" clip-rule="evenodd" d="M564.744 252.941C562.77 258.449 559.607 271.063 564.126 278.133C569.671 286.795 589.018 300.124 598.036 304.922C603.999 308.1 614.439 311.262 618.209 306.927C621.979 302.592 624.096 287.198 620.645 278.913C617.184 270.628 604.914 262.856 597.462 257.218C590.903 252.249 581.412 245.8 575.955 245.087C571.435 244.496 566.287 248.639 564.744 252.941Z" fill="white" stroke="#37485A" stroke-width="3.54299" stroke-miterlimit="1.5" stroke-linecap="round" stroke-linejoin="round"/>
<path fill-rule="evenodd" clip-rule="evenodd" d="M662.801 297.411C656.947 297.926 644.909 304.784 640.676 309.044C637.325 312.425 635.484 318.612 637.413 322.974C640.014 328.852 651.115 341.092 656.253 344.314C659.67 346.463 664.807 344.516 668.191 342.307C671.774 339.971 676.669 335.3 677.716 330.295C678.995 324.237 678.322 311.438 675.842 305.958C673.692 301.22 667.971 296.958 662.801 297.411Z" fill="white" stroke="#37485A" stroke-width="3.54299" stroke-miterlimit="1.5" stroke-linecap="round" stroke-linejoin="round"/>
<path fill-rule="evenodd" clip-rule="evenodd" d="M720.521 338.451C716.023 338.008 709.718 340.059 706.179 342.588C702.64 345.11 699.874 349.967 699.256 353.632C698.639 357.298 700.182 361.535 702.453 364.582C705.65 368.866 713.697 376.613 718.405 379.335C721.998 381.408 727.764 382.789 730.729 380.915C733.694 379.042 734.808 372.447 736.175 368.095C737.52 363.777 739.405 358.608 738.909 354.799C738.424 351.116 735.954 347.711 733.176 345.246C730.123 342.521 725.019 338.894 720.521 338.451Z" fill="white" stroke="#37485A" stroke-width="3.54299" stroke-miterlimit="1.5" stroke-linecap="round" stroke-linejoin="round"/>
<path fill-rule="evenodd" clip-rule="evenodd" d="M785.11 381.799C782.398 382.45 779.763 384.026 777.437 385.708C774.979 387.484 771.55 390.377 770.371 392.452C769.434 394.106 769.842 396.335 770.371 398.161C771.065 400.537 772.829 404.052 774.56 406.71C776.313 409.407 778.749 412.235 780.92 414.345C782.916 416.287 784.933 418.557 787.59 419.371C790.379 420.223 794.811 420.087 797.622 419.456C800.157 418.886 802.803 417.643 804.412 415.592C806.088 413.466 807.08 409.535 807.642 406.71C808.16 404.073 808.094 401.317 807.786 398.646C807.444 395.584 806.628 391.147 805.559 388.339C804.633 385.92 803.354 382.889 801.381 381.799C799.396 380.709 796.244 381.799 793.675 381.799C790.963 381.799 787.81 381.147 785.11 381.799Z" fill="#D92626" stroke="#37485A" stroke-width="3.54299" stroke-miterlimit="1.5" stroke-linecap="round" stroke-linejoin="round"/>
<path fill-rule="evenodd" clip-rule="evenodd" d="M285.092 541.24C282.457 546.899 283.306 562.16 284.871 568.081C285.985 572.268 290.196 576.699 294.517 576.763C395.55 578.274 785.925 578.16 891.015 577.139C902.579 577.027 914.419 573.055 925.101 570.642C935.198 568.362 945.693 565.896 955.118 562.665C964.224 559.544 974.245 554.905 981.653 551.258C987.859 548.202 995.587 544.296 999.589 540.788C1002.64 538.111 1006.24 532.864 1005.66 530.214C1005.1 527.565 999.787 525.194 996.182 524.889C989.447 524.32 975.568 525.782 965.304 526.8C953.619 527.96 939.189 530.471 926.071 531.848C908.697 533.673 881.325 536.723 861.03 537.746C842.158 538.697 821.554 538.347 804.335 537.987C788.769 537.661 773.248 535.94 757.682 535.581C736.208 535.085 701.516 535.16 675.467 535.009C650.784 534.864 624.625 534.635 601.409 534.667C579.648 534.697 557.887 535.2 536.126 535.2C513.296 535.2 488.316 534.782 464.416 534.667C439.668 534.548 410.366 534.518 387.668 534.486C367.859 534.457 342.746 534.53 328.25 534.469C319.056 534.432 307.878 532.996 300.68 534.125C295.046 535.01 287.517 536.054 285.092 541.24Z" fill="white" stroke="#37485A" stroke-width="3.54299" stroke-miterlimit="1.5" stroke-linecap="round" stroke-linejoin="round"/>
</svg>
