<svg width="1200" height="1210" viewBox="0 0 1200 1210" fill="none" xmlns="http://www.w3.org/2000/svg">
<path d="M1185.31 864.884H15.2717V1194.88H1185.31V864.884Z" fill="white"/>
<path fill-rule="evenodd" clip-rule="evenodd" d="M1185.32 307.078C1185.32 145.637 1054.25 14.5676 892.8 14.5676H307.78C146.338 14.5676 15.2681 145.637 15.2681 307.078V902.372C15.2681 1063.81 146.338 1194.87 307.78 1194.87H892.8C1054.25 1194.87 1185.32 1063.81 1185.32 902.372V307.078Z" stroke="#F20D0D" stroke-width="29.1344" stroke-miterlimit="1.5" stroke-linecap="round" stroke-linejoin="round"/>
<path fill-rule="evenodd" clip-rule="evenodd" d="M1174.26 307.874C1174.26 146.433 1043.19 15.3635 881.74 15.3635H296.72C135.278 15.3635 4.20801 146.433 4.20801 307.874V903.167C4.20801 1064.61 135.278 1195.67 296.72 1195.67H881.74C1043.19 1195.67 1174.26 1064.61 1174.26 903.167V307.874Z" fill="#D92626"/>
<path d="M15.27 793.187C1183.61 793.494 1185.31 793.657 1185.31 793.657" stroke="#37485A" stroke-width="13.8014" stroke-miterlimit="1.5" stroke-linecap="round" stroke-linejoin="round"/>
<path fill-rule="evenodd" clip-rule="evenodd" d="M1185.32 307.078C1185.32 145.637 1054.25 14.5676 892.8 14.5676H307.78C146.338 14.5676 15.2681 145.637 15.2681 307.078V902.372C15.2681 1063.81 146.338 1194.87 307.78 1194.87H892.8C1054.25 1194.87 1185.32 1063.81 1185.32 902.372V307.078Z" stroke="#37485A" stroke-width="29.1344" stroke-miterlimit="1.5" stroke-linecap="round" stroke-linejoin="round"/>
<path fill-rule="evenodd" clip-rule="evenodd" d="M1185.31 793.651V917.367L1164.45 1010.19L1122.75 1077.68L1061.83 1140.82L975.523 1179.68C975.523 1179.68 832.74 1194.46 825.641 1194.87C818.53 1195.28 706.148 1194.87 706.148 1194.87H375.173L197.337 1157.11L117.765 1101.81L55.3377 1019.3L34.9813 953.165L31.4558 864.137L29.0596 793.651" fill="#37485A"/>
<path d="M1185.31 793.651V917.367L1164.45 1010.19L1122.75 1077.68L1061.83 1140.82L975.523 1179.68C975.523 1179.68 832.74 1194.46 825.641 1194.87C818.53 1195.28 706.148 1194.87 706.148 1194.87H375.173L197.337 1157.11L117.765 1101.81L55.3377 1019.3L34.9813 953.165L31.4558 864.137L29.0596 793.651" stroke="#37485A" stroke-width="29.1636" stroke-miterlimit="1.5" stroke-linecap="round" stroke-linejoin="round"/>
<path d="M391.788 929.658H412.415V961.995C412.415 965.849 413.084 968.952 414.423 971.304C415.763 973.623 417.837 975.305 420.646 976.35C423.487 977.363 427.129 977.869 431.572 977.869C433.14 977.869 434.985 977.82 437.108 977.722C439.231 977.592 441.42 977.412 443.673 977.183C445.96 976.955 448.116 976.677 450.141 976.35C452.166 976.024 453.848 975.648 455.187 975.224V991.98C453.815 992.437 452.101 992.845 450.043 993.205C448.018 993.531 445.878 993.825 443.624 994.087C441.371 994.315 439.182 994.495 437.059 994.626C434.936 994.756 433.107 994.822 431.572 994.822C423.504 994.822 416.481 993.678 410.504 991.392C404.526 989.073 399.905 985.496 396.638 980.662C393.405 975.828 391.788 969.605 391.788 961.995V929.658ZM451.513 929.658H472.238V1030H451.513V929.658ZM510.515 1030H487.781L522.421 929.658H549.76L584.35 1030H561.617L536.482 952.588H535.698L510.515 1030ZM509.094 990.559H562.793V1007.12H509.094V990.559ZM680.246 964.788H658.786C658.394 962.011 657.594 959.545 656.385 957.389C655.177 955.201 653.625 953.339 651.731 951.804C649.836 950.269 647.648 949.093 645.165 948.276C642.716 947.46 640.054 947.051 637.179 947.051C631.986 947.051 627.462 948.342 623.608 950.922C619.753 953.47 616.765 957.193 614.642 962.093C612.518 966.96 611.457 972.872 611.457 979.829C611.457 986.982 612.518 992.992 614.642 997.859C616.797 1002.73 619.802 1006.4 623.657 1008.88C627.511 1011.37 631.969 1012.61 637.032 1012.61C639.874 1012.61 642.503 1012.23 644.921 1011.48C647.37 1010.73 649.542 1009.63 651.437 1008.2C653.331 1006.73 654.899 1004.95 656.14 1002.86C657.414 1000.77 658.296 998.382 658.786 995.703L680.246 995.801C679.691 1000.41 678.302 1004.85 676.081 1009.13C673.893 1013.37 670.937 1017.18 667.213 1020.54C663.522 1023.88 659.113 1026.52 653.985 1028.48C648.889 1030.41 643.124 1031.37 636.689 1031.37C627.74 1031.37 619.737 1029.35 612.682 1025.3C605.659 1021.25 600.106 1015.38 596.023 1007.71C591.973 1000.03 589.948 990.739 589.948 979.829C589.948 968.887 592.006 959.578 596.121 951.902C600.237 944.226 605.822 938.379 612.878 934.362C619.933 930.311 627.87 928.286 636.689 928.286C642.503 928.286 647.893 929.103 652.858 930.736C657.855 932.369 662.281 934.754 666.135 937.889C669.99 940.992 673.125 944.798 675.542 949.305C677.992 953.813 679.56 958.974 680.246 964.788ZM709.422 966.747H733.332C741.302 966.747 748.161 968.038 753.91 970.618C759.691 973.166 764.15 976.775 767.286 981.446C770.421 986.117 771.973 991.621 771.94 997.957C771.973 1004.26 770.421 1009.83 767.286 1014.66C764.15 1019.47 759.691 1023.22 753.91 1025.93C748.161 1028.64 741.302 1030 733.332 1030H695.851V929.658H717.017V1012.95H733.332C737.154 1012.95 740.371 1012.26 742.984 1010.89C745.597 1009.49 747.573 1007.64 748.912 1005.36C750.284 1003.04 750.954 1000.5 750.921 997.761C750.954 993.776 749.451 990.412 746.414 987.668C743.409 984.892 739.048 983.504 733.332 983.504H709.422V966.747ZM801.288 929.658V1030H780.122V929.658H801.288Z" fill="white"/>
<path fill-rule="evenodd" clip-rule="evenodd" d="M192.856 272.027C209.853 268.484 256.085 269.822 275.997 266.627C288.779 264.575 299.936 256.627 312.323 252.854C326.936 248.402 347.792 247.628 363.679 239.916C381.544 231.246 401.509 213.258 419.512 200.83C436.824 188.877 457.078 173.118 471.7 165.341C482.666 159.508 499.46 159.635 507.237 154.165C513.865 149.501 513.037 138.633 518.361 132.516C524.799 125.116 534.596 113.555 545.864 109.77C559.551 105.172 584.551 104.325 600.484 104.926C614.421 105.453 630.709 108.183 641.466 113.382C651.287 118.128 659.756 129.269 665.026 136.122C669.102 141.422 667.353 151.069 673.085 154.5C683.519 160.745 711.082 163.716 727.63 173.592C746.387 184.786 771.092 210.896 785.632 221.668C794.632 228.336 804.265 234.623 814.866 238.222C826.657 242.227 843.411 240.59 856.383 245.692C869.353 250.794 879.974 264.591 892.691 268.832C905.359 273.059 919.33 270.902 932.681 271.143C946.653 271.396 966.362 269.134 976.527 270.349C982.798 271.097 989.185 274.788 993.674 278.425C998.043 281.963 1002.57 286.612 1003.47 292.169C1005.55 305.103 1005.72 334.729 1006.2 356.03C1006.88 385.449 1006.75 440.143 1007.49 468.682C1008 488.231 1010.43 514.193 1010.67 527.263C1010.8 533.899 1011.29 541.258 1008.94 547.102C1006.6 552.944 1001.53 558.766 996.614 562.319C991.701 565.872 985.52 567.995 979.471 568.42C963.212 569.562 920.642 565.792 899.06 569.172C881.669 571.894 864.498 582.866 849.98 588.698C837.282 593.798 823.92 597.523 811.951 604.162C799.756 610.927 788.522 620.93 776.815 629.287C765.118 637.634 754.145 647.114 741.704 654.301C726.984 662.803 705.036 674.341 688.498 680.298C673.745 685.613 657.148 688.258 642.479 690.043C628.579 691.736 614.486 690.991 600.484 691.015C584.91 691.044 566.059 692.307 549.035 690.209C531.847 688.092 512.93 683.841 497.354 678.31C482.631 673.081 468.929 665.158 455.581 657.026C442.03 648.77 427.178 636.927 416.045 628.776C406.846 622.043 397.792 613.477 388.781 608.125C380.423 603.161 371.286 599.439 361.975 596.664C352.156 593.738 340.158 594.144 329.865 590.569C318.482 586.614 306.99 574.614 293.686 572.937C275.237 570.612 236.295 577.413 219.17 576.617C209.36 576.162 198.511 573.087 190.941 568.164C183.371 563.24 175.445 555.992 173.747 547.074C170.198 528.423 170.42 486.55 169.65 456.257C168.665 417.527 167.11 342.757 167.838 314.696C168.076 305.528 169.844 294.999 174.014 287.889C178.169 280.801 184.826 273.701 192.856 272.027Z" fill="white" stroke="#EBEBEB" stroke-width="3.54403" stroke-miterlimit="1.5" stroke-linecap="round" stroke-linejoin="round"/>
<path fill-rule="evenodd" clip-rule="evenodd" d="M192.124 325.633C190.409 358.814 193.709 475.081 194.323 508.645C194.437 514.791 189.844 525.632 195.816 527.024C211.251 530.619 268.453 528.154 286.932 530.222C294.153 531.03 300.538 535.567 306.698 539.429C312.934 543.338 317.443 550.609 324.351 553.677C332.369 557.237 344.527 559.066 354.807 560.794C366.287 562.723 383.256 560.92 393.224 565.253C402.497 569.283 406.886 580.262 414.617 586.789C424.391 595.042 438.919 606.359 451.875 614.775C464.821 623.186 478.064 631.432 492.345 637.284C507.838 643.633 526.822 649.915 544.828 652.867C563.479 655.926 586.319 656.462 604.256 655.633C620.508 654.884 637.535 651.69 652.451 647.902C666.643 644.298 680.53 639.219 693.746 632.905C707.103 626.523 721.939 617.121 732.588 609.615C741.626 603.246 749.532 594.281 757.644 587.867C765.212 581.884 772.419 574.991 781.257 571.135C791.338 566.738 806.486 565.171 818.135 561.483C829.35 557.933 842.076 553.422 851.15 549.009C858.822 545.277 864.151 536.296 872.579 535.003C892.719 531.912 953.514 532.247 971.988 530.463C976.298 530.046 983.138 528.628 983.429 524.297C985.816 488.892 987.803 353.463 986.307 318.037C986.119 313.562 978.92 312.041 974.459 311.744C956.074 310.518 895.965 313.723 875.993 310.682C866.966 309.308 862.356 298.374 854.628 293.501C846.822 288.577 837.809 284.488 829.155 281.143C820.586 277.832 811.487 275.292 802.698 273.432C794.054 271.603 784.14 273.732 776.42 269.984C768.7 266.237 763.148 257.196 756.378 250.947C748.84 243.989 740.298 234.94 731.199 228.242C721.472 221.082 708.622 213.806 698.013 207.982C688.129 202.556 677.436 196.762 667.543 193.295C658.252 190.038 645.289 189.237 638.656 187.173C634.651 185.928 629.041 184.908 627.737 180.915C625.727 174.758 629.549 156.206 626.595 150.237C624.025 145.042 615.784 145.525 610.014 145.098C599.084 144.288 571.472 144.497 561.019 145.379C556.168 145.789 549.299 145.94 547.294 150.388C544.666 156.219 548.143 174.418 545.25 180.363C542.862 185.268 535.114 184.372 529.934 186.054C524.163 187.927 516.938 189.356 510.63 191.6C503.112 194.275 493.016 197.914 484.834 202.097C476.673 206.27 469.055 211.463 461.533 216.701C453.792 222.092 445.428 228.649 438.388 234.445C431.804 239.865 424.878 246.619 419.29 251.476C414.549 255.598 409.083 260.353 404.856 263.59C401.377 266.255 398.134 269.674 393.93 270.898C387.685 272.718 376.153 272.823 367.384 274.508C358.524 276.209 348.393 278.351 340.774 281.108C334.023 283.551 327.625 287.045 321.666 291.054C315.682 295.079 311.695 302.59 304.871 305.26C297.305 308.22 285.87 308.401 276.274 308.813C259.566 309.529 218.646 306.757 204.621 309.559C197.975 310.888 192.476 318.849 192.124 325.633Z" fill="#37485A" stroke="#37485A" stroke-width="3.54403" stroke-miterlimit="1.5" stroke-linecap="round" stroke-linejoin="round"/>
<path fill-rule="evenodd" clip-rule="evenodd" d="M465.889 348.285C464.716 349.907 464.239 355.305 465.202 357.707C466.165 360.111 470.123 362.772 471.668 362.704C473.214 362.635 474.02 359.173 474.475 357.293C474.93 355.411 474.768 352.972 474.397 351.417C474.08 350.097 473.513 348.434 472.242 347.966C470.825 347.444 467.063 346.66 465.889 348.285Z" fill="white"/>
<path fill-rule="evenodd" clip-rule="evenodd" d="M468.637 402.348C465.814 401.337 462.218 401.898 459.346 402.348C456.587 402.779 453.386 403.603 451.409 405.039C449.496 406.431 448.416 409.42 447.492 410.966C446.855 412.029 446.063 413.084 445.858 414.307C445.464 416.648 444.759 422.261 445.128 425.015C445.418 427.17 446.744 429.35 448.07 430.832C449.381 432.294 451.215 433.337 453.092 433.906C455.418 434.609 459.022 435.139 462.022 435.058C465.077 434.974 468.915 434.639 471.424 433.41C473.833 432.229 475.524 429.866 477.083 427.68C478.673 425.449 480.382 422.58 480.969 420.02C481.542 417.518 481.384 414.26 480.604 412.325C479.877 410.521 477.781 409.65 476.289 408.406C474.293 406.743 471.461 403.357 468.637 402.348Z" fill="#D92626"/>
<path fill-rule="evenodd" clip-rule="evenodd" d="M478.534 479.969C475.929 479.757 472.512 481.553 471.05 482.913C469.74 484.131 469.773 486.336 469.759 488.126C469.744 490.149 470.011 493.006 470.958 495.05C471.905 497.096 474.004 499.394 475.444 500.393C476.594 501.191 478.202 501.214 479.591 501.041C481.346 500.824 484.313 500.072 485.971 499.087C487.495 498.184 488.923 496.451 489.538 495.142C490.093 493.962 489.961 492.502 489.668 491.231C489.349 489.847 488.122 488.008 487.625 486.832C487.259 485.969 487.427 484.747 486.679 484.182C485.165 483.039 481.139 480.18 478.534 479.969Z" fill="white"/>
<path fill-rule="evenodd" clip-rule="evenodd" d="M580.643 529.568C578.407 530.756 577.451 534.207 576.116 536.451C574.847 538.584 572.999 540.718 572.632 543.033C572.267 545.347 572.983 548.05 573.921 550.337C574.926 552.784 576.78 555.869 578.66 557.713C580.446 559.465 582.721 561.041 585.195 561.397C588.041 561.807 592.737 561.327 595.735 560.173C598.649 559.051 601.479 556.818 603.177 554.47C604.873 552.122 605.83 549.024 605.914 546.083C606.004 543.023 605.183 538.625 603.711 536.111C602.298 533.702 599.44 532.137 597.077 531.005C594.75 529.892 592.095 529.546 589.528 529.321C586.788 529.081 582.878 528.38 580.643 529.568Z" fill="white"/>
<path fill-rule="evenodd" clip-rule="evenodd" d="M654.953 502.778C653.6 503.555 649.713 505.399 648.033 507.187C646.42 508.904 645.325 511.196 644.872 513.509C644.345 516.201 644.436 520.779 644.872 523.344C645.215 525.362 646.328 527.211 647.486 528.896C648.802 530.813 650.616 533.76 652.768 534.837C654.92 535.915 657.902 535.878 660.4 535.362C663.151 534.793 666.774 533.07 669.272 531.427C671.642 529.867 674.216 527.748 675.381 525.498C676.548 523.246 676.104 520.17 676.265 517.924C676.406 515.961 676.966 513.887 676.344 512.021C675.673 510.003 673.356 507.121 672.229 505.814C671.552 505.028 670.544 504.569 669.584 504.178C668.261 503.64 665.681 502.868 664.299 502.583C663.316 502.382 662.292 502.48 661.288 502.474C659.929 502.464 657.208 502.475 656.152 502.527C655.745 502.545 655.307 502.574 654.953 502.778Z" fill="white"/>
<path fill-rule="evenodd" clip-rule="evenodd" d="M709.564 401.782C706.22 402.244 698.979 405.83 696.862 408.105C695.2 409.89 696.557 413.009 696.862 415.431C697.37 419.481 698.012 429.128 699.91 432.402C701.377 434.93 705.356 434.71 708.253 435.065C711.876 435.51 718.397 436.597 721.653 435.065C724.907 433.534 727 429.393 727.78 425.877C728.56 422.36 728.143 417.389 726.334 413.964C724.525 410.54 719.721 407.362 716.926 405.33C714.722 403.728 712.261 401.408 709.564 401.782Z" fill="white"/>
<path fill-rule="evenodd" clip-rule="evenodd" d="M655.422 299.456C653.839 300.258 652.802 302.928 652.472 304.995C651.981 308.062 652.262 315.536 652.479 317.86C652.533 318.421 653.216 318.889 653.776 318.942C655.124 319.068 658.845 320.09 660.571 318.615C662.682 316.81 665.562 310.552 666.447 308.116C666.919 306.815 666.558 305.207 665.877 304.002C665.13 302.678 663.637 300.904 661.966 300.178C660.223 299.42 657.004 298.653 655.422 299.456Z" fill="white"/>
<path d="M585.957 626.22C701.247 626.22 794.708 533.185 794.708 418.42C794.708 303.656 701.247 210.621 585.957 210.621C470.668 210.621 377.207 303.656 377.207 418.42C377.207 533.185 470.668 626.22 585.957 626.22Z" stroke="white" stroke-width="12.5008" stroke-miterlimit="1.5" stroke-linecap="round" stroke-linejoin="round"/>
<path fill-rule="evenodd" clip-rule="evenodd" d="M636.339 151.775C636.339 145.384 631.15 140.198 624.766 140.198H547.147C540.764 140.198 535.574 145.384 535.574 151.775V174.929C535.574 181.32 540.764 186.506 547.147 186.506H624.766C631.15 186.506 636.339 181.32 636.339 174.929V151.775Z" fill="#D92626"/>
<path fill-rule="evenodd" clip-rule="evenodd" d="M588.16 271.726C585.479 272.146 580.636 273.166 577.979 274.935C575.379 276.666 573.585 280.121 572.225 282.339C571.114 284.15 570.091 286.135 569.819 288.244C569.468 290.974 569.38 296.112 570.112 298.72C570.707 300.841 572.888 302.137 574.205 303.9C575.747 305.961 577.529 309.862 579.36 311.088C580.98 312.171 583.294 311.668 585.195 311.252C587.759 310.689 592.09 309.349 594.747 307.715C597.286 306.153 600.04 303.549 601.137 301.449C602.114 299.577 601.154 297.221 601.326 295.116C601.527 292.647 602.482 289.482 602.344 286.639C602.201 283.698 601.85 279.841 600.47 277.47C599.101 275.117 596.12 273.369 594.068 272.412C592.271 271.573 590.12 271.419 588.16 271.726Z" fill="white"/>
<path fill-rule="evenodd" clip-rule="evenodd" d="M254.811 365.632C251.751 368.378 252.393 374.605 251.662 379.184C250.92 383.817 250.581 389.569 250.364 393.43C250.198 396.397 250.308 399.375 250.364 402.348C250.458 407.177 250.914 415.977 250.919 422.407C250.924 428.582 250.77 434.79 250.395 440.925C250.023 447.036 248.958 453.379 248.67 459.211C248.396 464.771 248.58 472.129 248.67 475.911C248.718 477.915 248.007 480.298 249.206 481.902C250.499 483.629 253.655 485.773 256.419 486.274C259.308 486.797 263.865 487.146 266.539 485.043C269.312 482.863 271.796 477.519 273.061 473.188C274.398 468.612 273.697 462.743 274.553 457.592C275.474 452.053 277.985 445.1 278.586 439.96C279.098 435.585 277.982 431.152 278.16 426.751C278.415 420.481 279.731 408.342 280.112 402.348C280.358 398.498 280.294 394.635 280.451 390.782C280.627 386.453 281.354 380.14 281.169 376.377C281.032 373.591 281.108 370.369 279.347 368.207C277.489 365.928 273.61 363.081 270.024 362.705C265.934 362.276 257.871 362.886 254.811 365.632Z" fill="white" stroke="#37485A" stroke-width="3.54403" stroke-miterlimit="1.5" stroke-linecap="round" stroke-linejoin="round"/>
<path fill-rule="evenodd" clip-rule="evenodd" d="M924.531 373.458C922.289 370.111 915.237 373.743 910.603 373.458C905.638 373.152 898.218 371.47 894.744 371.623C892.851 371.705 890.565 372.647 889.763 374.369C888.717 376.614 889.103 381.549 888.466 385.092C887.629 389.756 885.267 397.138 884.734 402.348C884.26 406.993 885.194 411.677 885.273 416.347C885.363 421.756 885.273 428.989 885.273 434.804C885.273 440.28 885.157 445.756 885.273 451.231C885.428 458.599 885.224 473.098 886.204 479.005C886.703 482.007 888.352 485.493 891.151 486.672C894.184 487.95 899.984 486.672 904.402 486.672C908.9 486.672 915.135 489.033 918.144 486.672C921.152 484.311 921.901 477.41 922.455 472.504C923.195 465.944 922.221 454.489 922.587 447.309C922.892 441.316 924.59 435.425 924.651 429.424C924.717 423.032 923.083 414.939 922.983 408.957C922.899 403.806 923.832 398.684 924.057 393.536C924.315 387.62 926.774 376.804 924.531 373.458Z" fill="white" stroke="#37485A" stroke-width="3.54403" stroke-miterlimit="1.5" stroke-linecap="round" stroke-linejoin="round"/>
<path fill-rule="evenodd" clip-rule="evenodd" d="M522.849 300.09C520.345 298.399 515.908 298.535 513.219 299.115C510.654 299.667 508.207 302.026 506.72 303.567C505.479 304.852 505.062 306.738 504.296 308.353C503.392 310.258 501.878 312.975 501.297 314.995C500.79 316.759 500.681 318.648 500.807 320.48C500.954 322.611 501.346 325.452 502.176 327.787C503.067 330.293 504.555 333.1 506.153 335.516C509.75 340.956 517.727 352.243 523.76 360.427C531.902 371.472 548.377 393.09 554.999 401.782C557.774 405.422 562.087 408.866 563.493 412.575C564.847 416.147 565.247 420.677 563.432 424.038C559.709 430.932 548.078 444.111 541.155 453.945C534.46 463.455 527.196 474.593 521.897 483.041C517.473 490.092 512.42 498.601 509.351 504.633C506.974 509.307 502.774 514.495 503.489 519.233C504.205 523.972 509.518 531.176 513.645 533.067C517.772 534.958 524.477 533.77 528.251 530.579C533.691 525.979 540.273 513.836 546.288 505.467C552.567 496.728 559.446 487.301 565.931 478.15C572.685 468.621 581.057 456.413 586.805 448.299C591.285 441.976 596.965 434.442 600.426 429.463C602.929 425.864 604.396 421.439 607.574 418.423C610.993 415.178 616.577 412.944 620.94 409.99C628.029 405.19 642.488 395.153 650.108 389.622C655.756 385.522 661.36 380.901 666.661 376.803C671.74 372.876 677.115 369.305 681.912 365.036C687.436 360.121 696.938 352.118 699.806 347.311C701.706 344.125 700.787 339.189 699.12 336.197C697.452 333.203 693.419 329.535 689.803 329.351C686.187 329.168 681.234 332.606 677.424 335.092C672.836 338.086 667.328 343.24 662.278 347.311C656.572 351.914 649.086 357.88 643.183 362.705C637.708 367.18 632.084 371.491 626.863 376.262C621.433 381.222 614.895 388.221 610.606 392.468C607.466 395.577 604.15 400.822 601.13 401.742C598.124 402.656 594.72 400.193 592.481 397.982C588.612 394.163 582.709 385.259 577.916 378.828C571.373 370.051 559.611 353.873 553.225 345.321C548.756 339.334 543.77 333.529 539.607 327.519C535.525 321.627 531.038 313.83 528.245 309.259C526.396 306.233 525.354 301.781 522.849 300.09Z" fill="white" stroke="#37485A" stroke-width="3.54403" stroke-miterlimit="1.5" stroke-linecap="round" stroke-linejoin="round"/>
</svg>
