<?xml version="1.0" standalone="no"?>
<!DOCTYPE svg PUBLIC "-//W3C//DTD SVG 20010904//EN"
 "http://www.w3.org/TR/2001/REC-SVG-20010904/DTD/svg10.dtd">
<svg version="1.0" xmlns="http://www.w3.org/2000/svg"
 width="704.000000pt" height="540.000000pt" viewBox="0 0 704.000000 540.000000"
 preserveAspectRatio="xMidYMid meet">

<g transform="translate(0.000000,540.000000) scale(0.100000,-0.100000)"
fill="#000000" stroke="none">
<path d="M3827 4490 c-44 -13 -95 -57 -118 -102 -34 -66 -24 -169 25 -278 l39
-85 -17 -85 c-10 -47 -26 -98 -36 -115 -10 -16 -27 -67 -38 -112 -12 -45 -26
-91 -31 -102 -6 -11 -11 -35 -12 -53 -1 -61 -61 -221 -100 -266 -35 -41 -36
-41 -46 -19 -6 12 -14 30 -17 40 -3 9 -13 17 -21 17 -9 0 -30 14 -48 31 -38
36 -86 59 -124 59 -78 -1 -164 -79 -177 -161 -8 -48 20 -116 60 -148 24 -19
24 -21 11 -53 -14 -34 -54 -68 -80 -68 -22 0 -59 -42 -97 -110 -19 -34 -53
-89 -76 -123 -23 -34 -45 -73 -49 -87 -4 -14 -24 -45 -45 -70 -51 -62 -107
-151 -144 -230 -37 -79 -116 -169 -174 -199 -23 -12 -69 -24 -102 -28 -37 -3
-59 -10 -57 -17 6 -17 86 -29 128 -18 22 5 39 9 39 7 0 -2 -16 -13 -36 -25
-28 -16 -34 -24 -26 -32 9 -9 25 -7 65 5 68 21 65 22 59 -8 -7 -37 22 -32 55
10 33 41 36 42 70 15 33 -26 83 -27 83 -2 0 9 -10 22 -22 27 -19 8 -24 19 -26
62 -4 71 34 150 96 201 101 82 142 126 174 188 18 35 38 64 45 64 6 0 20 11
31 25 11 14 25 25 30 25 13 0 72 -83 72 -102 0 -7 8 -26 18 -43 10 -16 24 -52
31 -79 10 -41 10 -52 -4 -73 -9 -13 -29 -29 -44 -34 -37 -13 -51 -46 -51 -123
0 -55 -3 -65 -27 -88 -16 -14 -40 -28 -55 -32 -16 -3 -28 -10 -28 -15 0 -5
-39 -42 -88 -83 -48 -41 -112 -106 -141 -145 -43 -56 -62 -73 -87 -78 -18 -3
-46 -18 -62 -33 -16 -15 -65 -44 -108 -65 -44 -22 -123 -68 -178 -104 -109
-73 -296 -245 -296 -274 0 -24 -16 -32 -39 -20 -16 9 -23 6 -39 -16 -22 -31
-37 -25 -45 17 -4 19 -13 30 -23 30 -13 0 -15 -7 -10 -37 4 -21 9 -45 12 -54
3 -11 -3 -18 -16 -22 -12 -3 -24 -14 -27 -25 -3 -11 -17 -25 -31 -30 -63 -22
-100 -31 -150 -38 -62 -8 -112 -43 -112 -79 0 -13 18 -43 43 -70 50 -55 102
-69 155 -41 19 10 56 16 95 16 63 0 65 1 111 48 25 26 56 57 69 69 12 13 42
43 66 68 24 25 46 43 49 41 3 -3 20 3 37 14 19 11 40 17 49 14 11 -4 27 3 44
18 52 49 178 134 282 192 58 32 141 84 185 115 44 32 136 83 205 115 69 32
154 75 190 96 36 21 107 59 159 85 l94 47 56 -25 c31 -14 76 -31 101 -37 44
-12 147 -52 283 -112 37 -16 111 -38 165 -49 131 -28 184 -54 341 -171 73 -55
149 -106 167 -114 19 -8 71 -41 115 -74 44 -33 91 -60 104 -60 39 0 181 -153
229 -248 14 -29 31 -52 36 -52 5 0 33 20 62 45 29 24 82 62 118 84 69 42 238
183 247 207 18 48 -71 59 -132 17 -37 -26 -47 -28 -133 -27 -51 1 -95 4 -98 7
-11 10 48 77 72 83 13 3 24 10 24 15 0 17 -49 9 -77 -14 -55 -45 -79 -52 -108
-33 -14 9 -29 14 -34 12 -13 -8 -34 21 -28 38 14 36 -561 471 -650 492 -15 4
-55 33 -89 64 -69 67 -149 120 -253 170 -71 34 -72 35 -67 66 7 36 -18 75 -65
99 -16 9 -36 31 -44 53 -14 31 -14 44 -3 87 8 31 13 112 13 215 l-1 165 -32
62 c-39 75 -66 184 -57 231 3 18 15 54 26 80 12 26 25 81 30 122 14 113 25
171 41 215 9 22 19 60 23 85 4 24 16 56 27 71 17 23 22 52 29 184 5 86 13 174
19 196 8 27 8 45 0 59 -12 23 -9 25 54 34 88 12 154 87 163 184 13 145 -127
255 -270 212z" fill="#fff"/>
</g>
</svg>
