<?xml version="1.0" standalone="no"?>
<!DOCTYPE svg PUBLIC "-//W3C//DTD SVG 20010904//EN"
 "http://www.w3.org/TR/2001/REC-SVG-20010904/DTD/svg10.dtd">
<svg version="1.0" xmlns="http://www.w3.org/2000/svg"
 width="877.000000pt" height="413.000000pt" viewBox="0 0 877.000000 413.000000" 
 preserveAspectRatio="xMidYMid meet">

<g transform="translate(0.000000,413.000000) scale(0.100000,-0.100000)"
fill="#000000" stroke="none" >
<path d="M650 2071 l0 -1321 185 0 185 0 0 520 0 520 129 0 c138 0 271 19 352
49 108 42 213 150 284 294 59 121 69 189 69 462 -1 228 -2 245 -27 340 -41
153 -92 239 -191 323 -59 50 -126 84 -211 108 -50 15 -119 18 -417 22 l-358 4
0 -1321z m677 954 c68 -20 126 -83 150 -162 14 -48 17 -97 17 -273 0 -255 -10
-304 -74 -366 -58 -56 -94 -66 -262 -72 l-148 -4 0 446 0 446 133 0 c90 0 150
-5 184 -15z" fill="#fff"/>
<path d="M2558 3380 c-206 -37 -382 -170 -465 -351 -51 -110 -53 -141 -53
-961 0 -776 3 -840 39 -942 59 -168 221 -313 411 -370 85 -26 221 -31 310 -12
108 23 242 92 313 162 105 105 156 201 177 341 7 45 10 333 7 858 -3 885 0
845 -77 976 -108 182 -303 297 -520 305 -52 1 -116 -1 -142 -6z m212 -386
c106 -31 160 -122 160 -263 l-1 -66 -247 -309 -247 -309 -3 374 c-2 319 0 381
14 429 37 126 175 188 324 144z m144 -1723 c-37 -129 -178 -191 -325 -144
-110 36 -159 121 -159 277 l0 81 226 280 c124 154 236 294 247 310 l22 30 3
-390 c2 -332 0 -397 -14 -444z" fill="#fff"/>
<path d="M5853 3380 c-213 -39 -414 -203 -475 -390 -37 -110 -39 -170 -35
-975 3 -720 5 -795 21 -850 53 -182 229 -351 426 -409 85 -26 222 -31 310 -12
260 55 449 247 489 497 14 86 15 1551 1 1637 -22 135 -72 232 -169 327 -78 76
-148 119 -246 151 -90 29 -234 40 -322 24z m247 -376 c72 -21 123 -72 144
-144 14 -47 16 -143 16 -790 0 -814 0 -807 -63 -876 -36 -39 -124 -74 -185
-74 -66 0 -143 29 -183 69 -70 70 -69 55 -69 881 0 815 -1 807 63 877 36 39
119 72 183 73 22 0 65 -7 94 -16z" fill="#fff"/>
<path d="M3500 2060 l0 -1310 185 0 185 0 0 1310 0 1310 -185 0 -185 0 0
-1310z" fill="#fff"/>
<path d="M4090 3195 l0 -175 329 -2 328 -3 -65 -180 c-321 -893 -467 -1296
-543 -1506 l-89 -246 0 -166 0 -167 555 0 555 0 0 175 0 175 -359 2 -359 3
108 295 c179 492 301 826 457 1245 l148 400 3 163 3 162 -536 0 -535 0 0 -175z" fill="#fff"/>
<path d="M6800 2060 l0 -1310 190 0 190 0 2 779 3 779 102 -276 c56 -152 177
-479 268 -727 92 -247 175 -472 184 -500 l18 -50 176 -3 177 -2 0 1310 0 1310
-190 0 -190 0 -1 -787 0 -788 -54 150 c-30 83 -157 436 -283 785 l-229 635
-182 3 -181 2 0 -1310z" fill="#fff"/>
</g>
</svg>
