<svg width="84" height="83" viewBox="0 0 84 83" fill="none" xmlns="http://www.w3.org/2000/svg">
<mask id="mask0_7_782" style="mask-type:alpha" maskUnits="userSpaceOnUse" x="0" y="0" width="84" height="83">
<path d="M41.6963 82.745C64.5269 82.745 83.0348 64.2372 83.0348 41.4066C83.0348 18.576 64.5269 0.0681763 41.6963 0.0681763C18.8657 0.0681763 0.357788 18.576 0.357788 41.4066C0.357788 64.2372 18.8657 82.745 41.6963 82.745Z" fill="#37485A"/>
</mask>
<g mask="url(#mask0_7_782)">
<path d="M41.6967 79.7932C62.8966 79.7932 80.0825 62.6073 80.0825 41.4074C80.0825 20.2075 62.8966 3.02155 41.6967 3.02155C20.4968 3.02155 3.31085 20.2075 3.31085 41.4074C3.31085 62.6073 20.4968 79.7932 41.6967 79.7932Z" fill="#37485A" stroke="white" stroke-width="1.86936" stroke-miterlimit="1.5" stroke-linecap="round" stroke-linejoin="round"/>
<path fill-rule="evenodd" clip-rule="evenodd" d="M6.12945 35.6951C5.40487 35.6741 6.22095 34.3381 6.37614 33.6766C6.56719 32.8631 6.90004 31.7451 7.2757 30.8146C7.76535 29.6011 8.51186 27.8131 9.31403 26.3946C10.197 24.8331 11.5306 22.8491 12.573 21.4441C13.4811 20.2211 14.4888 19.0496 15.5708 17.9666C16.6523 16.8836 17.8211 15.8661 19.0653 14.9461C20.4149 13.9481 22.168 12.7636 23.669 11.9786C25.0593 11.2521 26.616 10.7531 28.0705 10.2386C29.4924 9.73556 31.0801 9.23456 32.3976 8.89206C33.5728 8.58656 34.7661 8.32256 35.9766 8.18306C37.3187 8.02856 39.0788 7.98856 40.453 7.96306C41.7084 7.94006 42.966 7.96806 44.2204 8.03056C45.677 8.10356 47.6366 8.18106 49.195 8.39956C50.6751 8.60706 52.2302 8.95956 53.5708 9.34206C54.8278 9.70006 56.1276 10.2496 57.2381 10.6926C58.2521 11.0971 59.2871 11.4741 60.2348 12.0001C61.3003 12.5921 62.6916 13.5846 63.6313 14.2426C64.4024 14.7826 65.1597 15.3426 65.8725 15.9486C66.6661 16.6231 67.6031 17.4641 68.3924 18.2896C69.2203 19.1541 70.1653 20.2961 70.838 21.1381C71.4047 21.8476 71.942 22.5796 72.4273 23.3406C72.9774 24.2026 73.6089 25.3286 74.1376 26.3111C74.6545 27.2726 75.1902 28.3046 75.5975 29.2366C75.9779 30.1071 76.3049 31.1106 76.5821 31.9036C76.8245 32.5961 77.1488 33.3576 77.2617 33.9956C77.3629 34.5661 77.8798 35.7166 77.2607 35.7311C65.4053 36.0146 17.9436 36.0376 6.12945 35.6951Z" fill="#D92626" stroke="#D92626" stroke-width="0.0501751" stroke-miterlimit="1.5" stroke-linecap="round" stroke-linejoin="round"/>
<path fill-rule="evenodd" clip-rule="evenodd" d="M42.0138 12.0597C39.3787 11.9927 29.5434 11.8527 26.734 12.0092C26.0809 12.0452 24.508 12.9177 25.1552 12.9997C26.532 13.1747 32.5478 13.0592 34.9951 13.0582C36.6104 13.0577 38.6726 13.0222 39.8397 12.9957C40.5599 12.9797 41.548 12.9967 41.9985 12.8997C42.2541 12.8447 42.5409 12.5532 42.5432 12.4132C42.5462 12.2732 42.2382 12.0657 42.0138 12.0597Z" fill="#37485A" stroke="#37485A" stroke-width="0.0499207" stroke-miterlimit="1.5" stroke-linecap="round" stroke-linejoin="round"/>
<path fill-rule="evenodd" clip-rule="evenodd" d="M56.7045 12.0617C55.1621 11.9967 49.4054 11.861 47.761 12.0127C47.3788 12.0476 46.4582 12.8936 46.8369 12.9731C47.6428 13.1428 51.1639 13.0308 52.5964 13.0299C53.5418 13.0294 54.7488 12.995 55.432 12.9693C55.8535 12.9538 56.4318 12.9702 56.6955 12.8762C56.8451 12.8229 57.013 12.5402 57.0143 12.4045C57.0161 12.2687 56.8358 12.0675 56.7045 12.0617Z" fill="#37485A" stroke="#37485A" stroke-width="0.0486447" stroke-miterlimit="1.5" stroke-linecap="round" stroke-linejoin="round"/>
<path fill-rule="evenodd" clip-rule="evenodd" d="M55.6716 13.8984C54.5532 13.8334 50.3789 13.6977 49.1865 13.8494C48.9093 13.8843 48.2417 14.7303 48.5164 14.8098C49.1007 14.9795 51.654 14.8675 52.6927 14.8665C53.3783 14.8661 54.2535 14.8316 54.7489 14.8059C55.0545 14.7904 55.4739 14.8069 55.6651 14.7129C55.7736 14.6595 55.8953 14.3769 55.8963 14.2411C55.8975 14.1054 55.7668 13.9042 55.6716 13.8984Z" fill="#37485A" stroke="#37485A" stroke-width="0.0452521" stroke-miterlimit="1.5" stroke-linecap="round" stroke-linejoin="round"/>
<path fill-rule="evenodd" clip-rule="evenodd" d="M55.6894 15.7136C54.6608 15.6486 50.8215 15.5129 49.7248 15.6646C49.4698 15.6996 48.8559 16.5456 49.1085 16.6251C49.6459 16.7947 51.9943 16.6828 52.9496 16.6818C53.5801 16.6813 54.3851 16.6469 54.8407 16.6212C55.1219 16.6057 55.5076 16.6222 55.6834 16.5281C55.7832 16.4748 55.8951 16.1921 55.8961 16.0564C55.8972 15.9206 55.777 15.7194 55.6894 15.7136Z" fill="#37485A" stroke="#37485A" stroke-width="0.0440659" stroke-miterlimit="1.5" stroke-linecap="round" stroke-linejoin="round"/>
<path fill-rule="evenodd" clip-rule="evenodd" d="M74.9861 33.948C72.781 33.8831 64.5507 33.7473 62.1997 33.8991C61.6532 33.934 60.337 34.78 60.8785 34.8595C62.0306 35.0292 67.0648 34.9172 69.1128 34.9162C70.4644 34.9157 72.1901 34.8813 73.1668 34.8556C73.7695 34.8401 74.5963 34.8566 74.9733 34.7625C75.1872 34.7092 75.4271 34.4266 75.4291 34.2908C75.4316 34.1551 75.1739 33.9539 74.9861 33.948Z" fill="#37485A" stroke="#37485A" stroke-width="0.0498553" stroke-miterlimit="1.5" stroke-linecap="round" stroke-linejoin="round"/>
<path fill-rule="evenodd" clip-rule="evenodd" d="M74.5145 32.2281C72.9854 32.1632 67.2782 32.0274 65.6479 32.1792C65.269 32.2141 64.3563 33.0601 64.7318 33.1396C65.5307 33.3093 69.0216 33.1973 70.4417 33.1963C71.379 33.1958 72.5757 33.1614 73.2529 33.1357C73.6708 33.1202 74.2442 33.1367 74.5056 33.0426C74.6539 32.9893 74.8203 32.7067 74.8217 32.5709C74.8234 32.4352 74.6447 32.234 74.5145 32.2281Z" fill="#37485A" stroke="#37485A" stroke-width="0.0484351" stroke-miterlimit="1.5" stroke-linecap="round" stroke-linejoin="round"/>
<path fill-rule="evenodd" clip-rule="evenodd" d="M74.05 30.2981C72.9658 30.2332 68.9194 30.0974 67.7636 30.2492C67.4949 30.2841 66.8478 31.1301 67.1141 31.2096C67.6805 31.3793 70.1555 31.2673 71.1624 31.2663C71.8269 31.2658 72.6753 31.2314 73.1555 31.2057C73.4518 31.1902 73.8583 31.2067 74.0437 31.1126C74.1488 31.0593 74.2668 30.7767 74.2678 30.6409C74.269 30.5052 74.1423 30.304 74.05 30.2981Z" fill="#37485A" stroke="#37485A" stroke-width="0.0445533" stroke-miterlimit="1.5" stroke-linecap="round" stroke-linejoin="round"/>
<path fill-rule="evenodd" clip-rule="evenodd" d="M73.1423 28.5759C72.337 28.5219 69.3315 28.409 68.473 28.5352C68.2734 28.5642 67.7928 29.2677 67.9905 29.3338C68.4112 29.475 70.2496 29.3818 70.9975 29.381C71.4911 29.3806 72.1212 29.352 72.4779 29.3306C72.698 29.3177 72.9999 29.3314 73.1376 29.2532C73.2157 29.2089 73.3033 28.9738 73.304 28.8609C73.3049 28.7481 73.2108 28.5807 73.1423 28.5759Z" fill="#37485A" stroke="#37485A" stroke-width="0.0430954" stroke-miterlimit="1.5" stroke-linecap="round" stroke-linejoin="round"/>
<path fill-rule="evenodd" clip-rule="evenodd" d="M72.289 26.6711C71.5927 26.6171 68.9939 26.5042 68.2515 26.6304C68.079 26.6594 67.6634 27.3629 67.8344 27.4291C68.1982 27.5702 69.7878 27.477 70.4344 27.4762C70.8612 27.4758 71.4061 27.4472 71.7145 27.4258C71.9048 27.4129 72.1659 27.4266 72.285 27.3484C72.3525 27.3041 72.4283 27.069 72.4289 26.9562C72.4297 26.8433 72.3483 26.676 72.289 26.6711Z" fill="#37485A" stroke="#37485A" stroke-width="0.0410755" stroke-miterlimit="1.5" stroke-linecap="round" stroke-linejoin="round"/>
<path fill-rule="evenodd" clip-rule="evenodd" d="M71.5998 24.8414C71.0103 24.7874 68.81 24.6745 68.1815 24.8007C68.0354 24.8297 67.6835 25.5332 67.8283 25.5993C68.1363 25.7405 69.4822 25.6473 70.0297 25.6465C70.391 25.6461 70.8524 25.6175 71.1135 25.5961C71.2746 25.5832 71.4956 25.5969 71.5964 25.5187C71.6536 25.4744 71.7177 25.2393 71.7183 25.1264C71.7189 25.0136 71.65 24.8463 71.5998 24.8414Z" fill="#37485A" stroke="#37485A" stroke-width="0.0384864" stroke-miterlimit="1.5" stroke-linecap="round" stroke-linejoin="round"/>
<path fill-rule="evenodd" clip-rule="evenodd" d="M70.151 23.0917C69.5668 23.0377 67.3863 22.9248 66.7635 23.051C66.6187 23.08 66.27 23.7835 66.4135 23.8497C66.7187 23.9908 68.0524 23.8976 68.595 23.8968C68.9531 23.8964 69.4103 23.8678 69.669 23.8464C69.8287 23.8335 70.0478 23.8472 70.1476 23.769C70.2043 23.7247 70.2679 23.4896 70.2684 23.3768C70.2691 23.2639 70.2008 23.0966 70.151 23.0917Z" fill="#37485A" stroke="#37485A" stroke-width="0.0383129" stroke-miterlimit="1.5" stroke-linecap="round" stroke-linejoin="round"/>
<path fill-rule="evenodd" clip-rule="evenodd" d="M68.5307 21.2506C67.8428 21.1927 65.275 21.0719 64.5416 21.207C64.3711 21.238 63.9604 21.9911 64.1294 22.0619C64.4888 22.2129 66.0594 22.1132 66.6983 22.1124C67.1201 22.1119 67.6584 22.0813 67.9631 22.0584C68.1512 22.0446 68.4091 22.0593 68.5267 21.9756C68.5935 21.9281 68.6683 21.6765 68.669 21.5557C68.6697 21.4348 68.5893 21.2557 68.5307 21.2506Z" fill="#37485A" stroke="#37485A" stroke-width="0.0396667" stroke-miterlimit="1.5" stroke-linecap="round" stroke-linejoin="round"/>
<path fill-rule="evenodd" clip-rule="evenodd" d="M67.6732 19.4458C67.072 19.388 64.8279 19.2671 64.1869 19.4022C64.0379 19.4333 63.679 20.1863 63.8267 20.2571C64.1408 20.4082 65.5134 20.3085 66.0718 20.3076C66.4404 20.3072 66.9109 20.2765 67.1772 20.2537C67.3415 20.2399 67.567 20.2545 67.6697 20.1708C67.7281 20.1233 67.7935 19.8717 67.794 19.7509C67.7947 19.6301 67.7244 19.451 67.6732 19.4458Z" fill="#37485A" stroke="#37485A" stroke-width="0.037564" stroke-miterlimit="1.5" stroke-linecap="round" stroke-linejoin="round"/>
<path fill-rule="evenodd" clip-rule="evenodd" d="M65.6901 17.6249C65.1784 17.5671 63.2686 17.4463 62.723 17.5814C62.5962 17.6124 62.2908 18.3655 62.4165 18.4363C62.6838 18.5873 63.852 18.4876 64.3272 18.4868C64.6409 18.4863 65.0413 18.4557 65.268 18.4328C65.4078 18.419 65.5997 18.4337 65.6872 18.35C65.7368 18.3025 65.7925 18.0509 65.7929 17.9301C65.7935 17.8092 65.7337 17.6301 65.6901 17.6249Z" fill="#37485A" stroke="#37485A" stroke-width="0.0350983" stroke-miterlimit="1.5" stroke-linecap="round" stroke-linejoin="round"/>
<path fill-rule="evenodd" clip-rule="evenodd" d="M63.7077 15.803C63.5031 15.7452 62.7391 15.6243 62.5209 15.7594C62.4702 15.7905 62.348 16.5435 62.3983 16.6143C62.5052 16.7653 62.9725 16.6657 63.1626 16.6648C63.288 16.6644 63.4482 16.6337 63.5389 16.6108C63.5948 16.597 63.6716 16.6117 63.7066 16.528C63.7264 16.4805 63.7487 16.2289 63.7489 16.1081C63.7491 15.9873 63.7252 15.8082 63.7077 15.803Z" fill="#37485A" stroke="#37485A" stroke-width="0.0229006" stroke-miterlimit="1.5" stroke-linecap="round" stroke-linejoin="round"/>
<path fill-rule="evenodd" clip-rule="evenodd" d="M36.7142 15.7331C33.9749 15.6661 23.7507 15.5261 20.8302 15.6826C20.1513 15.7186 18.5162 16.5911 19.189 16.6731C20.6202 16.8481 26.8739 16.7326 29.418 16.7316C31.0972 16.7311 33.2409 16.6956 34.4542 16.6691C35.2028 16.6531 36.23 16.6701 36.6983 16.5731C36.964 16.5181 37.2621 16.2266 37.2646 16.0866C37.2676 15.9466 36.9475 15.7391 36.7142 15.7331Z" fill="#37485A" stroke="#37485A" stroke-width="0.0492384" stroke-miterlimit="1.5" stroke-linecap="round" stroke-linejoin="round"/>
<path fill-rule="evenodd" clip-rule="evenodd" d="M33.2673 17.5225C30.7523 17.4555 21.3658 17.3155 18.6845 17.472C18.0613 17.508 16.5602 18.3805 17.1778 18.4625C18.4917 18.6375 24.2331 18.522 26.5688 18.521C28.1104 18.5205 30.0785 18.485 31.1924 18.4585C31.8797 18.4425 32.8228 18.4595 33.2527 18.3625C33.4966 18.3075 33.7703 18.016 33.7725 17.876C33.7753 17.736 33.4814 17.5285 33.2673 17.5225Z" fill="#37485A" stroke="#37485A" stroke-width="0.0498289" stroke-miterlimit="1.5" stroke-linecap="round" stroke-linejoin="round"/>
<path fill-rule="evenodd" clip-rule="evenodd" d="M29.56 19.3274C27.3101 19.2604 18.9131 19.1204 16.5145 19.2769C15.9569 19.3129 14.6141 20.1854 15.1666 20.2674C16.342 20.4424 21.4782 20.3269 23.5676 20.3259C24.9467 20.3254 26.7073 20.2899 27.7038 20.2634C28.3187 20.2474 29.1623 20.2644 29.5469 20.1674C29.7651 20.1124 30.0099 19.8209 30.0119 19.6809C30.0145 19.5409 29.7515 19.3334 29.56 19.3274Z" fill="#37485A" stroke="#37485A" stroke-width="0.0501376" stroke-miterlimit="1.5" stroke-linecap="round" stroke-linejoin="round"/>
<path fill-rule="evenodd" clip-rule="evenodd" d="M24.4318 21.2366C22.6992 21.1747 16.2327 21.0454 14.3855 21.1899C13.9561 21.2232 12.922 22.029 13.3475 22.1047C14.2527 22.2663 18.208 22.1596 19.8171 22.1587C20.8791 22.1583 22.235 22.1255 23.0023 22.101C23.4758 22.0862 24.1255 22.1019 24.4217 22.0123C24.5897 21.9615 24.7783 21.6923 24.7798 21.563C24.7818 21.4337 24.5793 21.2421 24.4318 21.2366Z" fill="#37485A" stroke="#37485A" stroke-width="0.0494709" stroke-miterlimit="1.5" stroke-linecap="round" stroke-linejoin="round"/>
<path fill-rule="evenodd" clip-rule="evenodd" d="M28.9331 34.023C25.5117 33.956 12.7421 33.816 9.09442 33.9725C8.24653 34.0085 6.2044 34.881 7.04464 34.963C8.83217 35.138 16.6429 35.0225 19.8204 35.0215C21.9175 35.021 24.595 34.9855 26.1104 34.959C27.0454 34.943 28.3283 34.96 28.9132 34.863C29.245 34.808 29.6174 34.5165 29.6204 34.3765C29.6242 34.2365 29.2244 34.029 28.9331 34.023Z" fill="#37485A" stroke="#37485A" stroke-width="0.047608" stroke-miterlimit="1.5" stroke-linecap="round" stroke-linejoin="round"/>
<path fill-rule="evenodd" clip-rule="evenodd" d="M18.5627 32.1036C16.8526 32.0366 10.4703 31.8966 8.6471 32.0531C8.22331 32.0891 7.20263 32.9616 7.62259 33.0436C8.51602 33.2186 12.4199 33.1031 14.008 33.1021C15.0562 33.1016 16.3945 33.0661 17.1518 33.0396C17.6192 33.0236 18.2604 33.0406 18.5527 32.9436C18.7186 32.8886 18.9047 32.5971 18.9062 32.4571C18.9081 32.3171 18.7083 32.1096 18.5627 32.1036Z" fill="#37485A" stroke="#37485A" stroke-width="0.0489565" stroke-miterlimit="1.5" stroke-linecap="round" stroke-linejoin="round"/>
<path fill-rule="evenodd" clip-rule="evenodd" d="M16.0517 30.3334C14.809 30.2708 10.1711 30.14 8.84629 30.2862C8.53834 30.3198 7.79664 31.1349 8.10181 31.2115C8.75104 31.375 11.5879 31.2671 12.7419 31.2662C13.5036 31.2657 14.4761 31.2325 15.0265 31.2078C15.3661 31.1928 15.832 31.2087 16.0445 31.1181C16.165 31.0667 16.3002 30.7944 16.3013 30.6636C16.3027 30.5328 16.1575 30.339 16.0517 30.3334Z" fill="#37485A" stroke="#37485A" stroke-width="0.046819" stroke-miterlimit="1.5" stroke-linecap="round" stroke-linejoin="round"/>
<path fill-rule="evenodd" clip-rule="evenodd" d="M14.8724 28.4918C13.9562 28.4292 10.5369 28.2984 9.56017 28.4446C9.33313 28.4783 8.78631 29.2934 9.01131 29.37C9.48995 29.5334 11.5814 29.4255 12.4322 29.4246C12.9938 29.4241 13.7107 29.391 14.1165 29.3662C14.3669 29.3513 14.7104 29.3672 14.867 29.2765C14.9559 29.2252 15.0556 28.9528 15.0564 28.8221C15.0574 28.6913 14.9503 28.4974 14.8724 28.4918Z" fill="#37485A" stroke="#37485A" stroke-width="0.0429835" stroke-miterlimit="1.5" stroke-linecap="round" stroke-linejoin="round"/>
<path fill-rule="evenodd" clip-rule="evenodd" d="M14.8862 26.5988C14.1409 26.5407 11.3596 26.4192 10.5651 26.555C10.3804 26.5862 9.93558 27.3432 10.1186 27.4143C10.5079 27.5661 12.2092 27.4659 12.9013 27.465C13.3581 27.4646 13.9413 27.4338 14.2713 27.4108C14.475 27.3969 14.7544 27.4117 14.8818 27.3275C14.9541 27.2798 15.0352 27.0269 15.0359 26.9055C15.0367 26.784 14.9496 26.604 14.8862 26.5988Z" fill="#37485A" stroke="#37485A" stroke-width="0.0408521" stroke-miterlimit="1.5" stroke-linecap="round" stroke-linejoin="round"/>
<path fill-rule="evenodd" clip-rule="evenodd" d="M14.9097 24.7643C14.2816 24.7062 11.9373 24.5847 11.2677 24.7205C11.1121 24.7517 10.7372 25.5086 10.8914 25.5798C11.2196 25.7316 12.6534 25.6314 13.2368 25.6305C13.6218 25.6301 14.1133 25.5993 14.3915 25.5763C14.5631 25.5624 14.7986 25.5772 14.906 25.493C14.9669 25.4453 15.0353 25.1924 15.0358 25.071C15.0365 24.9495 14.9631 24.7695 14.9097 24.7643Z" fill="#37485A" stroke="#37485A" stroke-width="0.0382448" stroke-miterlimit="1.5" stroke-linecap="round" stroke-linejoin="round"/>
<path fill-rule="evenodd" clip-rule="evenodd" d="M17.854 23.068C16.9595 23.0223 13.6209 22.9268 12.6672 23.0336C12.4455 23.0581 11.9116 23.6535 12.1312 23.7095C12.5986 23.8289 14.6407 23.7501 15.4715 23.7494C16.0198 23.749 16.7198 23.7248 17.116 23.7067C17.3605 23.6958 17.6959 23.7074 17.8488 23.6412C17.9356 23.6037 18.0329 23.4048 18.0337 23.3092C18.0347 23.2137 17.9302 23.0721 17.854 23.068Z" fill="#37485A" stroke="#37485A" stroke-width="0.0467471" stroke-miterlimit="1.5" stroke-linecap="round" stroke-linejoin="round"/>
<path fill-rule="evenodd" clip-rule="evenodd" d="M40.1378 13.8669C37.3531 13.7999 26.9602 13.6599 23.9914 13.8164C23.3013 13.8524 21.6392 14.7249 22.3231 14.8069C23.7779 14.9819 30.1349 14.8664 32.721 14.8654C34.4279 14.8649 36.607 14.8294 37.8404 14.8029C38.6014 14.7869 39.6455 14.8039 40.1216 14.7069C40.3916 14.6519 40.6947 14.3604 40.6972 14.2204C40.7003 14.0804 40.3748 13.8729 40.1378 13.8669Z" fill="#37485A" stroke="#37485A" stroke-width="0.0496433" stroke-miterlimit="1.5" stroke-linecap="round" stroke-linejoin="round"/>
<path fill-rule="evenodd" clip-rule="evenodd" d="M15.2764 23.9814C15.8233 23.745 16.8359 23.49 17.6276 23.2792C18.4204 23.0682 19.2317 22.9102 20.0308 22.7154C20.9245 22.4974 22.0135 22.2486 22.991 21.9716C24.1502 21.6431 25.7112 21.1785 26.984 20.7447C28.2148 20.3251 29.5051 19.8394 30.6265 19.369C31.6768 18.9283 32.6968 18.4285 33.7115 17.9225C34.7645 17.3975 36.033 16.7089 36.9425 16.2189C37.6912 15.8158 38.4553 15.4338 39.17 14.9827C39.9038 14.5195 40.73 13.8583 41.3444 13.4402C41.8376 13.1045 42.3723 12.721 42.8566 12.4739C43.2941 12.2506 43.7587 12.0107 44.2493 11.9575C44.74 11.9041 45.3262 11.9546 45.8003 12.1539C46.3133 12.3695 46.9334 12.7885 47.3269 13.2511C47.7198 13.7137 47.9938 14.4789 48.1595 14.9294C48.28 15.2563 48.2959 15.6094 48.3214 15.9536C48.3485 16.3149 48.2816 16.8148 48.3214 17.0967C48.3496 17.292 48.3915 17.5245 48.562 17.6451C48.7929 17.8087 49.3064 17.9885 49.7078 18.0781C50.1761 18.1826 50.8425 18.2691 51.3714 18.272C51.879 18.2747 52.4525 18.2368 52.8825 18.0956C53.2898 17.9619 53.6461 17.6838 53.9525 17.4244C54.2546 17.1684 54.5636 16.8873 54.7208 16.5392C54.8896 16.1656 54.8891 15.5473 54.9645 15.183C55.0224 14.9043 55.0112 14.5949 55.1753 14.3537C55.3548 14.0892 55.7026 13.7893 56.0424 13.596C56.4003 13.3921 56.9276 13.1836 57.3242 13.1303C57.6895 13.0812 58.066 13.1815 58.4207 13.2762C58.8147 13.3813 59.3244 13.5146 59.6871 13.761C60.0497 14.0074 60.3343 14.3951 60.5961 14.7544C60.8791 15.1437 61.1621 15.6562 61.3873 16.0966C61.6034 16.5186 61.7653 16.9619 61.9485 17.3967C62.1561 17.8907 62.4482 18.6318 62.6345 19.0602C62.7678 19.3665 62.9536 19.6537 63.0657 19.9669C63.1783 20.2826 63.2313 20.6871 63.311 20.9541C63.3731 21.1633 63.4167 21.3855 63.543 21.569C63.7114 21.8135 64.0268 22.1676 64.3214 22.4212C64.6793 22.7288 65.273 23.0741 65.6887 23.4143C66.0886 23.7413 66.5287 24.1555 66.8171 24.4627C67.047 24.7074 67.2673 25.0033 67.4192 25.2581C67.5562 25.4883 67.6825 25.733 67.7277 25.9917C67.8004 26.4061 67.8785 27.257 67.8541 27.7445C67.8334 28.1436 67.7155 28.537 67.579 28.9165C67.4245 29.3444 67.1956 29.8769 66.9286 30.3118C66.662 30.7457 66.3578 31.17 65.976 31.5249C65.5576 31.9137 64.9767 32.3224 64.4181 32.6453C63.8425 32.9779 63.1459 33.2649 62.5204 33.5223C61.914 33.7715 61.2598 33.998 60.6646 34.1885C60.1002 34.3689 59.463 34.5371 58.9479 34.6636C58.4945 34.7751 58.041 34.9041 57.5732 34.9477C56.9626 35.005 56.0467 35.0035 55.2831 35.0069C50.6508 35.0263 34.2526 35.0675 29.7823 35.0636C29.3416 35.0631 28.9003 35.0292 28.4623 34.9841C28.0152 34.9385 27.5527 34.8576 27.0987 34.7882C26.573 34.7077 25.8238 34.5875 25.3098 34.5017C24.8776 34.4295 24.4284 34.3553 24.0148 34.2733C23.6171 34.1943 23.2193 34.1124 22.828 34.0086C22.2604 33.8574 21.3365 33.6125 20.6091 33.3653C19.8492 33.1073 18.9731 32.7777 18.268 32.4601C17.6143 32.1658 16.9325 31.7881 16.3771 31.4599C15.8764 31.1646 15.2955 30.7957 14.935 30.4931C14.6462 30.2502 14.4077 29.955 14.2145 29.6432C14.0127 29.3177 13.8337 28.9139 13.7244 28.5401C13.6155 28.17 13.5789 27.7833 13.555 27.4008C13.5311 27.0182 13.5199 26.5931 13.5794 26.2449C13.6346 25.9215 13.7849 25.5691 13.9118 25.3112C14.0217 25.0895 14.1624 24.875 14.3446 24.6975C14.5718 24.4758 14.909 24.1399 15.2764 23.9814Z" fill="white" stroke="white" stroke-width="0.0497232" stroke-miterlimit="1.5" stroke-linecap="round" stroke-linejoin="round"/>
<path fill-rule="evenodd" clip-rule="evenodd" d="M50.9726 10.4006C47.5274 10.2316 36.2424 10.0706 32.7694 10.1611C31.8479 10.1851 30.0718 10.7676 30.1333 10.9426C30.1949 11.1181 32.1321 11.2021 33.1381 11.2121C35.1294 11.2316 39.5469 11.0966 43.8638 11.0986C47.9694 11.1006 51.992 11.2416 53.4406 11.1756C54.3075 11.1361 51.8395 10.4431 50.9726 10.4006Z" fill="#37485A" stroke="#37485A" stroke-width="0.0501751" stroke-miterlimit="1.5" stroke-linecap="round" stroke-linejoin="round"/>
<path fill-rule="evenodd" clip-rule="evenodd" d="M60.7631 18.8112C60.5843 18.8346 60.35 19.4335 60.1198 19.7294C59.8582 20.0655 59.4547 20.548 59.1935 20.8279C58.9987 21.0372 58.7751 21.2221 58.5551 21.4086C58.2554 21.6624 57.7481 22.0988 57.3971 22.351C57.0985 22.5654 56.6886 22.6521 56.4472 22.9219C55.9613 23.4643 54.7021 25.1451 54.4822 25.6055C54.3939 25.7904 54.9098 25.6895 55.1265 25.6844C55.454 25.6765 56.0105 25.6266 56.4472 25.5586C56.8908 25.4894 57.3564 25.4097 57.7909 25.269C58.2603 25.1171 58.835 24.8913 59.2626 24.6469C59.6661 24.4164 60.0348 24.1157 60.3564 23.8031C60.6759 23.4923 60.9723 23.0957 61.1907 22.7715C61.3833 22.4848 61.5995 22.1907 61.6659 21.8577C61.7333 21.5195 61.6707 21.1079 61.5947 20.7423C61.5155 20.3642 61.3314 19.9109 61.1928 19.589C61.0761 19.3183 60.9418 18.7878 60.7631 18.8112Z" fill="#37485A" stroke="#37485A" stroke-width="0.0501751" stroke-miterlimit="1.5" stroke-linecap="round" stroke-linejoin="round"/>
<path fill-rule="evenodd" clip-rule="evenodd" d="M53.6677 23.7186C53.6415 23.4094 52.8955 23.6882 52.5086 23.685C52.0093 23.6809 51.2708 23.7358 50.671 23.6942C50.078 23.653 49.4054 23.5342 48.9093 23.4349C48.4956 23.3522 48.1028 23.1963 47.6929 23.0984C47.2638 22.9959 46.7206 22.9055 46.3332 22.8196C46.0099 22.7478 45.6958 22.6362 45.3683 22.583C45.0392 22.5296 44.6972 22.5146 44.3606 22.499C43.9379 22.4795 43.2893 22.4278 42.8339 22.4659C42.4224 22.5003 42.0173 22.602 41.6266 22.7276C41.1959 22.8661 40.6859 23.1037 40.2492 23.2969C39.8302 23.4827 39.3989 23.6892 39.0088 23.8872C38.6358 24.0764 38.2751 24.2859 37.9075 24.4847C37.5013 24.7048 37.0293 24.9881 36.5712 25.2073C36.0821 25.4414 35.5095 25.6701 34.9728 25.8891C34.4307 26.1102 33.8265 26.363 33.3176 26.5345C32.8606 26.6884 32.3613 26.8191 31.9188 26.9176C31.5046 27.0097 31.0866 27.1058 30.6612 27.1254C29.8184 27.1643 27.7319 27.1644 26.8617 27.1507C26.3865 27.1433 25.9124 27.0956 25.4404 27.0435C24.954 26.9897 24.4097 26.9115 23.9426 26.8284C23.5038 26.7503 23.013 26.6409 22.6368 26.5449C22.3152 26.4628 21.9974 26.3646 21.6864 26.2523C21.3038 26.1142 20.7537 25.9584 20.3411 25.7165C19.9023 25.4597 19.4496 24.8552 19.0546 24.7113C18.7148 24.5875 18.3295 24.7895 17.971 24.853C17.5943 24.9198 17.1255 24.998 16.7937 25.1121C16.5015 25.2124 16.1483 25.3527 15.9792 25.5376C15.8149 25.7172 15.74 25.9975 15.7791 26.2214C15.8182 26.4452 15.9964 26.7212 16.2136 26.8806C16.5165 27.1026 17.1217 27.3544 17.5959 27.5536C18.1401 27.7825 18.8385 28.053 19.4795 28.2538C20.1544 28.4653 21.0031 28.6687 21.6458 28.8229C22.2061 28.9571 22.7663 29.0989 23.3379 29.1789C24.0025 29.2719 24.8635 29.3509 25.6304 29.3808C26.8339 29.4276 29.3057 29.4883 30.5584 29.46C31.4259 29.4404 32.3035 29.3973 33.1485 29.2109C34.0754 29.0064 35.1558 28.5839 36.1212 28.2325C37.0748 27.8856 38.0931 27.4591 38.9429 27.1028C39.7087 26.7815 40.5141 26.3601 41.2183 26.0945C41.8525 25.8557 42.5658 25.6562 43.1705 25.5094C43.7212 25.3757 44.2814 25.2658 44.8471 25.2135C45.6155 25.1425 46.909 25.0654 47.7802 25.0833C48.5497 25.0991 49.3813 25.2475 50.0754 25.3208C50.6988 25.3866 51.5138 25.4864 51.9457 25.523C52.1854 25.5433 52.507 25.7081 52.667 25.5403C52.9544 25.2396 53.6945 24.0278 53.6677 23.7186Z" fill="#37485A" stroke="#37485A" stroke-width="0.0501751" stroke-miterlimit="1.5" stroke-linecap="round" stroke-linejoin="round"/>
<path fill-rule="evenodd" clip-rule="evenodd" d="M15.3274 28.1986C15.2803 28.2842 15.6828 28.9249 15.8963 29.2043C16.0927 29.4609 16.3517 29.6727 16.6102 29.8751C16.8879 30.0926 17.2298 30.3201 17.5627 30.5091C17.956 30.7331 18.527 31.0156 18.9717 31.2181C19.3816 31.4051 19.8092 31.5566 20.2293 31.7231C20.6772 31.9006 21.1963 32.1246 21.6613 32.2836C22.1065 32.4356 22.5641 32.5546 23.0195 32.6766C23.5177 32.8096 24.0983 32.9816 24.6511 33.0816C25.3312 33.2041 26.3518 33.3356 27.1025 33.4126C27.7838 33.4821 28.4693 33.5121 29.1543 33.5416C30.0308 33.5796 31.2916 33.6326 32.3608 33.6416C34.1123 33.6561 37.2278 33.6246 39.6611 33.6301C42.7226 33.6371 47.8733 33.6776 50.7304 33.6831C52.7542 33.6876 55.386 33.7496 56.8025 33.6641C57.6283 33.6146 58.4524 33.3611 59.2283 33.1726C59.9807 32.9901 60.7738 32.7941 61.4582 32.5346C62.1116 32.2866 62.8159 31.9551 63.3323 31.6161C63.7989 31.3091 64.1927 30.9091 64.5566 30.4986C64.9216 30.0866 65.2753 29.6024 65.5231 29.1422C65.7618 28.6997 65.9389 28.1532 66.0454 27.7379C66.1364 27.3835 66.2043 26.9732 66.1626 26.6502C66.123 26.3465 65.9261 25.943 65.7939 25.7995C65.7008 25.6991 65.4974 25.7351 65.3679 25.7894C65.133 25.8878 64.6267 26.1467 64.3843 26.39C64.1499 26.6255 64.1135 26.9867 63.9145 27.2493C63.6298 27.6254 63.1134 28.2443 62.6762 28.6469C62.2577 29.0322 61.7905 29.376 61.2907 29.6648C60.7706 29.9656 60.1557 30.2366 59.5547 30.4511C58.9169 30.6791 58.0093 30.9036 57.4629 31.0321C57.0733 31.1236 56.6762 31.1991 56.2754 31.2216C55.6054 31.2596 54.2387 31.3111 53.4424 31.2591C52.7842 31.2161 52.1319 31.0301 51.4988 30.9096C50.8791 30.7921 50.2632 30.6571 49.6435 30.5371C49.0013 30.4126 48.1756 30.2421 47.6448 30.1621C47.2531 30.1036 46.856 30.0651 46.4589 30.0586C45.958 30.0501 45.1981 30.0481 44.6378 30.1121C44.1145 30.1721 43.6008 30.2996 43.0972 30.4441C42.5578 30.5986 41.9119 30.8341 41.403 31.0411C40.9374 31.2301 40.4959 31.5586 40.0448 31.6841C39.6124 31.8036 38.8327 31.8986 38.6957 31.7916C38.5593 31.6846 39.0195 31.2716 39.2244 31.0416C39.4561 30.7816 39.7499 30.4481 40.0855 30.2326C40.4927 29.9711 41.1135 29.6707 41.6668 29.4725C42.279 29.2533 43.1223 29.0324 43.7586 28.9173C44.3259 28.8148 44.9648 28.8046 45.4855 28.7819C45.9516 28.7616 46.4198 28.7541 46.8854 28.781C47.3617 28.8086 47.8604 28.8799 48.3453 28.9473C48.8777 29.0214 49.5097 29.1282 50.0796 29.2254C50.6421 29.3213 51.2066 29.4461 51.7642 29.5302C52.3138 29.6132 52.865 29.7101 53.4221 29.7296C54.1809 29.7566 55.4845 29.7731 56.3172 29.6915C57.0321 29.6214 57.7497 29.4412 58.4197 29.2397C59.0795 29.0411 59.7784 28.788 60.3355 28.4825C60.8626 28.1936 61.3876 27.7719 61.7622 27.4069C62.0956 27.0816 62.3364 26.6279 62.5804 26.2927C62.7977 25.9946 62.9694 25.6635 63.2279 25.3956C63.5019 25.1114 64.2554 24.9369 64.2249 24.5875C64.1949 24.2381 63.3745 23.3466 63.0476 23.2991C62.7206 23.2516 62.5515 23.9898 62.2631 24.3026C61.9746 24.6154 61.6632 24.9171 61.3169 25.1757C60.9177 25.4738 60.3505 25.8378 59.8678 26.0913C59.407 26.3332 58.8724 26.5285 58.4203 26.6963C58.0066 26.8499 57.5967 27.0413 57.1552 27.0979C56.4729 27.1854 55.0885 27.2117 54.3259 27.2212C53.7432 27.2284 53.1165 27.1959 52.5787 27.1547C52.0826 27.1167 51.5764 27.0456 51.0991 26.9739C50.634 26.9042 50.1824 26.747 49.7125 26.7246C48.7894 26.6808 46.4878 26.6616 45.5631 26.7109C45.0842 26.7365 44.6272 26.9076 44.1627 27.0207C43.6334 27.1498 42.9688 27.2991 42.3871 27.4851C41.7877 27.6769 41.1579 27.9378 40.566 28.1716C39.9854 28.4011 39.416 28.6539 38.8375 28.8881C38.2553 29.1239 37.6319 29.3759 37.0716 29.5868C36.5434 29.7856 35.9927 29.9896 35.4747 30.1536C34.9771 30.3111 34.4157 30.4571 33.9635 30.5716C33.5664 30.6726 33.1694 30.7806 32.7627 30.8426C32.3495 30.9056 31.9129 30.9446 31.4853 30.9501C30.2293 30.9656 26.5829 30.9671 25.2274 30.9386C24.5997 30.9256 23.926 30.8401 23.3513 30.7781C22.8263 30.7211 22.3002 30.6616 21.7812 30.5661C21.2252 30.4636 20.5429 30.3006 20.0158 30.1626C19.5438 30.0391 19.0793 29.8906 18.6174 29.7381C18.1465 29.5823 17.5986 29.4031 17.1919 29.2286C16.8387 29.077 16.4887 28.8625 16.1783 28.6909C15.8909 28.5322 15.3745 28.113 15.3274 28.1986Z" fill="#37485A" stroke="#37485A" stroke-width="0.0501751" stroke-miterlimit="1.5" stroke-linecap="round" stroke-linejoin="round"/>
<path fill-rule="evenodd" clip-rule="evenodd" d="M25.8209 22.7165C24.9192 22.8639 21.5468 23.6369 21.0834 24.041C20.6205 24.4451 22.3195 24.916 23.0419 25.141C23.9388 25.4202 25.3093 25.6278 26.4647 25.7164C27.7142 25.8123 29.4229 25.8216 30.5403 25.7164C31.4398 25.6317 32.3233 25.3887 33.1672 25.0854C34.1599 24.7286 35.5705 24.0457 36.4985 23.5754C37.2717 23.1833 37.9637 22.6609 38.7337 22.2634C39.5241 21.8557 40.3316 21.3084 41.2397 21.129C42.2667 20.9261 43.7934 20.9657 44.8979 21.0457C45.9051 21.1186 46.9411 21.434 47.8679 21.609C48.7306 21.7719 49.5814 22.0126 50.4574 22.0953C51.342 22.1788 52.2935 22.2025 53.1743 22.1101C54.0493 22.0185 54.9547 21.9048 55.7446 21.5413C56.5628 21.1649 57.4244 20.5363 58.0831 19.8513C58.7815 19.1252 59.7185 17.8656 59.9325 17.1851C60.0845 16.7015 59.6741 16.1349 59.3658 15.7687C59.0576 15.4026 58.4807 15.1297 58.0831 14.9883C57.739 14.8658 57.213 14.6843 56.9807 14.9201C56.748 15.1559 56.8266 15.9439 56.688 16.403C56.5553 16.8419 56.4247 17.2992 56.1486 17.6749C55.8527 18.0761 55.3893 18.5027 54.9151 18.8104C54.4244 19.1291 53.8122 19.4202 53.2038 19.587C52.576 19.7591 51.7321 19.8446 51.1462 19.8435C50.6522 19.8426 50.1567 19.7344 49.6906 19.5804C48.9805 19.3456 47.7828 18.6332 46.8854 18.4348C46.0485 18.2498 45.1334 18.2889 44.3061 18.3897C43.4857 18.4897 42.6969 18.7654 41.9231 19.0394C41.1493 19.3135 40.3643 19.6979 39.6627 20.0343C39.0002 20.3523 38.289 20.7554 37.7148 21.0581C37.2145 21.3216 36.7248 21.6027 36.2159 21.8507C35.6551 22.1241 34.9835 22.4409 34.3494 22.6985C33.6885 22.9667 32.8569 23.2693 32.2532 23.4597C31.7539 23.6171 31.2498 23.7828 30.727 23.8411C30.1646 23.9038 29.4208 23.88 28.8776 23.836C28.4003 23.7974 27.8657 23.6903 27.468 23.577C27.125 23.4794 26.7665 23.2998 26.492 23.1564C26.2533 23.0317 26.0901 22.6724 25.8209 22.7165Z" fill="#37485A" stroke="#37485A" stroke-width="0.0501751" stroke-miterlimit="1.5" stroke-linecap="round" stroke-linejoin="round"/>
<path fill-rule="evenodd" clip-rule="evenodd" d="M27.6693 21.9778C27.4996 22.1626 28.1594 22.2134 28.4265 22.2635C28.7738 22.3287 29.3961 22.3547 29.7552 22.3692C30.0303 22.3803 30.3101 22.3974 30.5809 22.3503C30.986 22.2798 31.6662 22.1225 32.1874 21.9462C32.7734 21.7482 33.4685 21.4418 34.0957 21.1623C34.7892 20.8533 35.6075 20.4683 36.347 20.0925C37.1856 19.6664 38.3928 18.9693 39.1265 18.606C39.652 18.3457 40.2776 18.1071 40.7496 17.9126C41.1488 17.7479 41.5565 17.5741 41.9568 17.4389C42.3491 17.3066 42.7451 17.1769 43.1534 17.1011C43.5783 17.0224 44.0524 16.9599 44.5057 16.9665C45.0456 16.9745 46.0704 17.3428 46.3931 17.1488C46.7158 16.9549 46.5071 16.2475 46.4418 15.8028C46.3717 15.3255 46.1528 14.6533 45.9719 14.2851C45.8376 14.0125 45.6064 13.7381 45.3549 13.5938C45.1034 13.4495 44.7336 13.4244 44.4629 13.4195C44.2135 13.415 43.9513 13.4563 43.7303 13.5645C43.4113 13.7204 42.9147 14.1028 42.5503 14.355C42.2099 14.5904 41.8915 14.8538 41.5426 15.0776C41.1589 15.3236 40.459 15.6199 40.2476 15.8309C40.1224 15.9558 40.2578 16.1732 40.2733 16.3437C40.2915 16.5422 40.3846 16.8461 40.3562 17.0216C40.3332 17.1676 40.2326 17.3099 40.1053 17.3969C39.9656 17.4919 39.7189 17.6457 39.5198 17.5919C39.2865 17.5289 39.0441 17.0146 38.7043 17.0187C38.3356 17.023 37.5521 17.4399 37.3092 17.618C37.1759 17.7153 37.3054 17.9629 37.2439 18.0874C37.1845 18.2076 37.0785 18.339 36.9399 18.3648C36.7628 18.3977 36.4326 18.245 36.1817 18.2848C35.8852 18.3321 35.3351 18.4921 35.1601 18.648C35.0124 18.7799 35.1424 19.0481 35.1323 19.2204C35.1232 19.3742 35.1831 19.5644 35.0985 19.6816C35.014 19.7988 34.8031 19.9025 34.6244 19.9235C34.4339 19.9458 34.1754 19.8643 33.9555 19.8157C33.7291 19.7657 33.5049 19.6098 33.2652 19.6235C33.0174 19.6378 32.7188 19.7886 32.4673 19.9012C32.2174 20.0127 31.8861 20.1055 31.7545 20.2987C31.6234 20.4919 31.7534 20.8913 31.6774 21.0602C31.6175 21.1937 31.4495 21.2781 31.2991 21.3122C31.1407 21.3481 30.8769 21.3567 30.7265 21.2758C30.5761 21.1948 30.5911 20.845 30.3979 20.8267C30.1844 20.8064 29.7536 21.024 29.4454 21.1541C28.9905 21.346 27.8394 21.7929 27.6693 21.9778Z" fill="#37485A" stroke="#37485A" stroke-width="0.0501751" stroke-miterlimit="1.5" stroke-linecap="round" stroke-linejoin="round"/>
<path d="M28.7585 48V39.2727H32.2017C32.8608 39.2727 33.4233 39.3906 33.8892 39.6264C34.358 39.8594 34.7145 40.1903 34.9588 40.6193C35.206 41.0455 35.3295 41.5469 35.3295 42.1236C35.3295 42.7031 35.2045 43.2017 34.9545 43.6193C34.7045 44.0341 34.3423 44.3523 33.8679 44.5739C33.3963 44.7955 32.8253 44.9062 32.1548 44.9062H29.8494V43.4233H31.8565C32.2088 43.4233 32.5014 43.375 32.7344 43.2784C32.9673 43.1818 33.1406 43.0369 33.2543 42.8438C33.3707 42.6506 33.429 42.4105 33.429 42.1236C33.429 41.8338 33.3707 41.5895 33.2543 41.3906C33.1406 41.1918 32.9659 41.0412 32.7301 40.9389C32.4972 40.8338 32.2031 40.7812 31.848 40.7812H30.6037V48H28.7585ZM33.4716 44.0284L35.6406 48H33.6037L31.4815 44.0284H33.4716ZM42.0241 39.2727H43.8693V44.9403C43.8693 45.5767 43.7173 46.1335 43.4134 46.6108C43.1122 47.0881 42.6903 47.4602 42.1477 47.7273C41.6051 47.9915 40.973 48.1236 40.2514 48.1236C39.527 48.1236 38.8935 47.9915 38.3509 47.7273C37.8082 47.4602 37.3864 47.0881 37.0852 46.6108C36.7841 46.1335 36.6335 45.5767 36.6335 44.9403V39.2727H38.4787V44.7827C38.4787 45.1151 38.5511 45.4105 38.696 45.669C38.8438 45.9276 39.0511 46.1307 39.3182 46.2784C39.5852 46.4261 39.8963 46.5 40.2514 46.5C40.6094 46.5 40.9205 46.4261 41.1847 46.2784C41.4517 46.1307 41.6577 45.9276 41.8026 45.669C41.9503 45.4105 42.0241 45.1151 42.0241 44.7827V39.2727ZM52.6871 39.2727V48H51.0934L47.2965 42.5071H47.2326V48H45.3874V39.2727H47.0067L50.7738 44.7614H50.8505V39.2727H52.6871Z" fill="white"/>
<path d="M28.7585 48H28.446C28.446 48.1726 28.5859 48.3125 28.7585 48.3125V48ZM28.7585 39.2727V38.9602C28.5859 38.9602 28.446 39.1001 28.446 39.2727H28.7585ZM33.8892 39.6264L33.7481 39.9053L33.7501 39.9063L33.8892 39.6264ZM34.9588 40.6193L34.6873 40.774L34.6885 40.7761L34.9588 40.6193ZM34.9545 43.6193L35.2222 43.7806L35.2227 43.7798L34.9545 43.6193ZM33.8679 44.5739L33.7357 44.2907L33.735 44.291L33.8679 44.5739ZM29.8494 44.9062H29.5369C29.5369 45.0788 29.6768 45.2188 29.8494 45.2188V44.9062ZM29.8494 43.4233V43.1108C29.6768 43.1108 29.5369 43.2507 29.5369 43.4233H29.8494ZM32.7344 43.2784L32.8541 43.5671L32.8541 43.5671L32.7344 43.2784ZM33.2543 42.8438L32.9866 42.6824L32.9849 42.6853L33.2543 42.8438ZM33.2543 41.3906L32.9829 41.5457L32.9846 41.5486L33.2543 41.3906ZM32.7301 40.9389L32.6016 41.2238L32.6058 41.2256L32.7301 40.9389ZM30.6037 40.7812V40.4688C30.4311 40.4688 30.2912 40.6087 30.2912 40.7812H30.6037ZM30.6037 48V48.3125C30.7763 48.3125 30.9162 48.1726 30.9162 48H30.6037ZM33.4716 44.0284L33.7459 43.8786C33.6911 43.7783 33.5859 43.7159 33.4716 43.7159V44.0284ZM35.6406 48V48.3125C35.7509 48.3125 35.8531 48.2543 35.9094 48.1594C35.9657 48.0646 35.9678 47.947 35.9149 47.8502L35.6406 48ZM33.6037 48L33.3281 48.1473C33.3824 48.249 33.4884 48.3125 33.6037 48.3125V48ZM31.4815 44.0284V43.7159C31.3717 43.7159 31.27 43.7735 31.2135 43.8677C31.157 43.9619 31.1542 44.0788 31.2059 44.1757L31.4815 44.0284ZM29.071 48V39.2727H28.446V48H29.071ZM28.7585 39.5852H32.2017V38.9602H28.7585V39.5852ZM32.2017 39.5852C32.8243 39.5852 33.3359 39.6966 33.7481 39.9052L34.0303 39.3476C33.5107 39.0846 32.8973 38.9602 32.2017 38.9602V39.5852ZM33.7501 39.9063C34.1668 40.1133 34.4756 40.4023 34.6873 40.774L35.2304 40.4647C34.9534 39.9784 34.5491 39.6054 34.0283 39.3466L33.7501 39.9063ZM34.6885 40.7761C34.9036 41.147 35.017 41.5925 35.017 42.1236H35.642C35.642 41.5013 35.5083 40.9439 35.2291 40.4625L34.6885 40.7761ZM35.017 42.1236C35.017 42.6574 34.9023 43.0982 34.6864 43.4588L35.2227 43.7798C35.5068 43.3052 35.642 42.7488 35.642 42.1236H35.017ZM34.6869 43.458C34.4716 43.8153 34.1586 44.0932 33.7357 44.2907L34.0001 44.857C34.526 44.6114 34.9375 44.2529 35.2222 43.7806L34.6869 43.458ZM33.735 44.291C33.3151 44.4883 32.792 44.5938 32.1548 44.5938V45.2188C32.8585 45.2188 33.4775 45.1026 34.0008 44.8567L33.735 44.291ZM32.1548 44.5938H29.8494V45.2188H32.1548V44.5938ZM30.1619 44.9062V43.4233H29.5369V44.9062H30.1619ZM29.8494 43.7358H31.8565V43.1108H29.8494V43.7358ZM31.8565 43.7358C32.2347 43.7358 32.5713 43.6843 32.8541 43.5671L32.6147 42.9897C32.4315 43.0657 32.1829 43.1108 31.8565 43.1108V43.7358ZM32.8541 43.5671C33.1415 43.4479 33.3713 43.2611 33.5236 43.0022L32.9849 42.6853C32.91 42.8127 32.7932 42.9157 32.6147 42.9897L32.8541 43.5671ZM33.5219 43.0051C33.6747 42.7516 33.7415 42.4521 33.7415 42.1236H33.1165C33.1165 42.3689 33.0668 42.5495 32.9866 42.6824L33.5219 43.0051ZM33.7415 42.1236C33.7415 41.7924 33.6748 41.4903 33.5239 41.2327L32.9846 41.5486C33.0667 41.6887 33.1165 41.8752 33.1165 42.1236H33.7415ZM33.5256 41.2356C33.3744 40.971 33.1442 40.7779 32.8545 40.6522L32.6058 41.2256C32.7876 41.3045 32.9068 41.4125 32.9829 41.5457L33.5256 41.2356ZM32.8586 40.6541C32.5728 40.5251 32.2313 40.4688 31.848 40.4688V41.0938C32.175 41.0938 32.4215 41.1425 32.6016 41.2238L32.8586 40.6541ZM31.848 40.4688H30.6037V41.0938H31.848V40.4688ZM30.2912 40.7812V48H30.9162V40.7812H30.2912ZM30.6037 47.6875H28.7585V48.3125H30.6037V47.6875ZM33.1973 44.1782L35.3664 48.1498L35.9149 47.8502L33.7459 43.8786L33.1973 44.1782ZM35.6406 47.6875H33.6037V48.3125H35.6406V47.6875ZM33.8793 47.8527L31.7572 43.8811L31.2059 44.1757L33.3281 48.1473L33.8793 47.8527ZM31.4815 44.3409H33.4716V43.7159H31.4815V44.3409ZM42.0241 39.2727V38.9602C41.8516 38.9602 41.7116 39.1001 41.7116 39.2727H42.0241ZM43.8693 39.2727H44.1818C44.1818 39.1001 44.0419 38.9602 43.8693 38.9602V39.2727ZM43.4134 46.6108L43.1498 46.4429L43.1491 46.444L43.4134 46.6108ZM42.1477 47.7273L42.2845 48.0082L42.2857 48.0077L42.1477 47.7273ZM38.3509 47.7273L38.2129 48.0077L38.214 48.0082L38.3509 47.7273ZM37.0852 46.6108L36.8209 46.7775L36.8209 46.7775L37.0852 46.6108ZM36.6335 39.2727V38.9602C36.4609 38.9602 36.321 39.1001 36.321 39.2727H36.6335ZM38.4787 39.2727H38.7912C38.7912 39.1001 38.6513 38.9602 38.4787 38.9602V39.2727ZM38.696 45.669L38.4234 45.8218L38.4247 45.8241L38.696 45.669ZM39.3182 46.2784L39.1669 46.5519L39.1669 46.5519L39.3182 46.2784ZM41.1847 46.2784L41.0334 46.005L41.0321 46.0057L41.1847 46.2784ZM41.8026 45.669L41.5312 45.514L41.53 45.5163L41.8026 45.669ZM42.0241 39.5852H43.8693V38.9602H42.0241V39.5852ZM43.5568 39.2727V44.9403H44.1818V39.2727H43.5568ZM43.5568 44.9403C43.5568 45.5249 43.4179 46.0219 43.1498 46.4429L43.6769 46.7787C44.0167 46.2452 44.1818 45.6285 44.1818 44.9403H43.5568ZM43.1491 46.444C42.8809 46.869 42.5044 47.2034 42.0097 47.4469L42.2857 48.0077C42.8763 47.717 43.3435 47.3072 43.6776 46.7775L43.1491 46.444ZM42.0109 47.4463C41.5185 47.6861 40.9348 47.8111 40.2514 47.8111V48.4361C41.0112 48.4361 41.6918 48.2969 42.2845 48.0082L42.0109 47.4463ZM40.2514 47.8111C39.565 47.8111 38.98 47.686 38.4877 47.4463L38.214 48.0082C38.807 48.2969 39.489 48.4361 40.2514 48.4361V47.8111ZM38.4888 47.4469C37.9942 47.2034 37.6176 46.869 37.3495 46.444L36.8209 46.7775C37.1551 47.3072 37.6223 47.717 38.2129 48.0077L38.4888 47.4469ZM37.3495 46.444C37.0838 46.0229 36.946 45.5254 36.946 44.9403H36.321C36.321 45.628 36.4844 46.2442 36.8209 46.7775L37.3495 46.444ZM36.946 44.9403V39.2727H36.321V44.9403H36.946ZM36.6335 39.5852H38.4787V38.9602H36.6335V39.5852ZM38.1662 39.2727V44.7827H38.7912V39.2727H38.1662ZM38.1662 44.7827C38.1662 45.1619 38.2493 45.5112 38.4234 45.8218L38.9686 45.5163C38.853 45.3099 38.7912 45.0682 38.7912 44.7827H38.1662ZM38.4247 45.8241C38.6016 46.1336 38.8511 46.3771 39.1669 46.5519L39.4695 46.005C39.2512 45.8842 39.0859 45.7215 38.9673 45.514L38.4247 45.8241ZM39.1669 46.5519C39.4873 46.7291 39.8521 46.8125 40.2514 46.8125V46.1875C39.9405 46.1875 39.6831 46.1232 39.4695 46.005L39.1669 46.5519ZM40.2514 46.8125C40.653 46.8125 41.0185 46.7293 41.3372 46.5512L41.0321 46.0057C40.8224 46.1229 40.5658 46.1875 40.2514 46.1875V46.8125ZM41.3359 46.5519C41.6523 46.3769 41.901 46.1326 42.0752 45.8218L41.53 45.5163C41.4144 45.7225 41.2511 45.8845 41.0334 46.005L41.3359 46.5519ZM42.0739 45.8241C42.2516 45.513 42.3366 45.163 42.3366 44.7827H41.7116C41.7116 45.0671 41.6489 45.308 41.5312 45.514L42.0739 45.8241ZM42.3366 44.7827V39.2727H41.7116V44.7827H42.3366ZM52.6871 39.2727H52.9996C52.9996 39.1001 52.8597 38.9602 52.6871 38.9602V39.2727ZM52.6871 48V48.3125C52.8597 48.3125 52.9996 48.1726 52.9996 48H52.6871ZM51.0934 48L50.8363 48.1777C50.8947 48.2621 50.9908 48.3125 51.0934 48.3125V48ZM47.2965 42.5071L47.5536 42.3294C47.4952 42.245 47.3991 42.1946 47.2965 42.1946V42.5071ZM47.2326 42.5071V42.1946C47.06 42.1946 46.9201 42.3345 46.9201 42.5071H47.2326ZM47.2326 48V48.3125C47.4052 48.3125 47.5451 48.1726 47.5451 48H47.2326ZM45.3874 48H45.0749C45.0749 48.1726 45.2148 48.3125 45.3874 48.3125V48ZM45.3874 39.2727V38.9602C45.2148 38.9602 45.0749 39.1001 45.0749 39.2727H45.3874ZM47.0067 39.2727L47.2644 39.0959C47.2061 39.011 47.1097 38.9602 47.0067 38.9602V39.2727ZM50.7738 44.7614L50.5161 44.9382C50.5744 45.0231 50.6708 45.0739 50.7738 45.0739V44.7614ZM50.8505 44.7614V45.0739C51.0231 45.0739 51.163 44.934 51.163 44.7614H50.8505ZM50.8505 39.2727V38.9602C50.6779 38.9602 50.538 39.1001 50.538 39.2727H50.8505ZM52.3746 39.2727V48H52.9996V39.2727H52.3746ZM52.6871 47.6875H51.0934V48.3125H52.6871V47.6875ZM51.3505 47.8223L47.5536 42.3294L47.0395 42.6848L50.8363 48.1777L51.3505 47.8223ZM47.2965 42.1946H47.2326V42.8196H47.2965V42.1946ZM46.9201 42.5071V48H47.5451V42.5071H46.9201ZM47.2326 47.6875H45.3874V48.3125H47.2326V47.6875ZM45.6999 48V39.2727H45.0749V48H45.6999ZM45.3874 39.5852H47.0067V38.9602H45.3874V39.5852ZM46.7491 39.4496L50.5161 44.9382L51.0314 44.5845L47.2644 39.0959L46.7491 39.4496ZM50.7738 45.0739H50.8505V44.4489H50.7738V45.0739ZM51.163 44.7614V39.2727H50.538V44.7614H51.163ZM50.8505 39.5852H52.6871V38.9602H50.8505V39.5852Z" fill="white"/>
<path d="M25.9482 62V51.0909H30.2521C31.076 51.0909 31.7791 51.2383 32.3615 51.533C32.9474 51.8242 33.3931 52.2379 33.6985 52.7741C34.0075 53.3068 34.1619 53.9336 34.1619 54.6545C34.1619 55.3789 34.0057 56.0021 33.6932 56.5241C33.3807 57.0426 32.9279 57.4403 32.3349 57.7173C31.7454 57.9943 31.0316 58.1328 30.1935 58.1328H27.3118V56.2791H29.8207C30.261 56.2791 30.6268 56.2187 30.918 56.098C31.2092 55.9773 31.4258 55.7962 31.5678 55.5547C31.7134 55.3132 31.7862 55.0131 31.7862 54.6545C31.7862 54.2923 31.7134 53.9869 31.5678 53.7383C31.4258 53.4897 31.2074 53.3015 30.9126 53.1737C30.6214 53.0423 30.2539 52.9766 29.81 52.9766H28.2546V62H25.9482ZM31.8395 57.0355L34.5508 62H32.0046L29.3519 57.0355H31.8395ZM42.5302 51.0909H44.8366V58.1754C44.8366 58.9709 44.6467 59.6669 44.2667 60.2635C43.8903 60.8601 43.3629 61.3253 42.6847 61.6591C42.0064 61.9893 41.2163 62.1545 40.3143 62.1545C39.4087 62.1545 38.6168 61.9893 37.9386 61.6591C37.2603 61.3253 36.733 60.8601 36.3565 60.2635C35.9801 59.6669 35.7919 58.9709 35.7919 58.1754V51.0909H38.0984V57.9783C38.0984 58.3938 38.1889 58.7631 38.37 59.0863C38.5547 59.4094 38.8139 59.6634 39.1477 59.848C39.4815 60.0327 39.8704 60.125 40.3143 60.125C40.7617 60.125 41.1506 60.0327 41.4808 59.848C41.8146 59.6634 42.0721 59.4094 42.2532 59.0863C42.4379 58.7631 42.5302 58.3938 42.5302 57.9783V51.0909ZM55.8589 51.0909V62H53.8667L49.1206 55.1339H49.0407V62H46.7343V51.0909H48.7584L53.4672 57.9517H53.5631V51.0909H55.8589Z" fill="white"/>
<path d="M25.9482 62H25.3232C25.3232 62.3452 25.603 62.625 25.9482 62.625V62ZM25.9482 51.0909V50.4659C25.603 50.4659 25.3232 50.7457 25.3232 51.0909H25.9482ZM32.3615 51.533L32.0793 52.0907L32.0834 52.0927L32.3615 51.533ZM33.6985 52.7741L33.1554 53.0835L33.1579 53.0877L33.6985 52.7741ZM33.6932 56.5241L34.2285 56.8468L34.2294 56.8452L33.6932 56.5241ZM32.3349 57.7173L32.0704 57.1511L32.0691 57.1517L32.3349 57.7173ZM27.3118 58.1328H26.6868C26.6868 58.478 26.9666 58.7578 27.3118 58.7578V58.1328ZM27.3118 56.2791V55.6541C26.9666 55.6541 26.6868 55.9339 26.6868 56.2791H27.3118ZM30.918 56.098L31.1574 56.6754L31.1574 56.6754L30.918 56.098ZM31.5678 55.5547L31.0326 55.232L31.0291 55.2378L31.5678 55.5547ZM31.5678 53.7383L31.0251 54.0484L31.0285 54.0542L31.5678 53.7383ZM30.9126 53.1737L30.6556 53.7434L30.6639 53.747L30.9126 53.1737ZM28.2546 52.9766V52.3516C27.9094 52.3516 27.6296 52.6314 27.6296 52.9766H28.2546ZM28.2546 62V62.625C28.5998 62.625 28.8796 62.3452 28.8796 62H28.2546ZM31.8395 57.0355L32.388 56.7359C32.2784 56.5353 32.0681 56.4105 31.8395 56.4105V57.0355ZM34.5508 62V62.625C34.7714 62.625 34.9757 62.5087 35.0883 62.3189C35.2009 62.1291 35.2051 61.8941 35.0993 61.7004L34.5508 62ZM32.0046 62L31.4534 62.2945C31.5621 62.498 31.774 62.625 32.0046 62.625V62ZM29.3519 57.0355V56.4105C29.1323 56.4105 28.9288 56.5258 28.8159 56.7142C28.7029 56.9025 28.6972 57.1364 28.8007 57.3301L29.3519 57.0355ZM26.5732 62V51.0909H25.3232V62H26.5732ZM25.9482 51.7159H30.2521V50.4659H25.9482V51.7159ZM30.2521 51.7159C31.003 51.7159 31.6043 51.8503 32.0793 52.0907L32.6437 50.9754C31.9539 50.6263 31.149 50.4659 30.2521 50.4659V51.7159ZM32.0834 52.0927C32.5651 52.3321 32.9153 52.6618 33.1554 53.0835L34.2416 52.4648C33.8709 51.814 33.3298 51.3163 32.6397 50.9733L32.0834 52.0927ZM33.1579 53.0877C33.4028 53.51 33.5369 54.0248 33.5369 54.6545H34.7869C34.7869 53.8424 34.6122 53.1037 34.2392 52.4606L33.1579 53.0877ZM33.5369 54.6545C33.5369 55.2875 33.4011 55.7952 33.1569 56.2031L34.2294 56.8452C34.6102 56.2091 34.7869 55.4703 34.7869 54.6545H33.5369ZM33.1579 56.2015C32.9147 56.605 32.5605 56.9221 32.0704 57.1511L32.5994 58.2836C33.2953 57.9586 33.8467 57.4802 34.2285 56.8468L33.1579 56.2015ZM32.0691 57.1517C31.583 57.3801 30.9651 57.5078 30.1935 57.5078V58.7578C31.0981 58.7578 31.9078 58.6086 32.6007 58.283L32.0691 57.1517ZM30.1935 57.5078H27.3118V58.7578H30.1935V57.5078ZM27.9368 58.1328V56.2791H26.6868V58.1328H27.9368ZM27.3118 56.9041H29.8207V55.6541H27.3118V56.9041ZM29.8207 56.9041C30.3128 56.9041 30.7666 56.8374 31.1574 56.6754L30.6786 55.5207C30.487 55.6001 30.2092 55.6541 29.8207 55.6541V56.9041ZM31.1574 56.6754C31.5575 56.5094 31.8871 56.2446 32.1065 55.8716L31.0291 55.2378C30.9644 55.3478 30.8608 55.4451 30.6786 55.5207L31.1574 56.6754ZM32.1031 55.8774C32.3214 55.5153 32.4112 55.0964 32.4112 54.6545H31.1612C31.1612 54.9299 31.1055 55.1111 31.0326 55.232L32.1031 55.8774ZM32.4112 54.6545C32.4112 54.2094 32.3216 53.7885 32.1071 53.4224L31.0285 54.0542C31.1053 54.1852 31.1612 54.3751 31.1612 54.6545H32.4112ZM32.1105 53.4282C31.8934 53.0482 31.5641 52.7749 31.1613 52.6003L30.6639 53.747C30.8507 53.828 30.9582 53.9312 31.0252 54.0484L32.1105 53.4282ZM31.1697 52.604C30.7727 52.4248 30.3102 52.3516 29.81 52.3516V53.6016C30.1976 53.6016 30.4702 53.6597 30.6556 53.7433L31.1697 52.604ZM29.81 52.3516H28.2546V53.6016H29.81V52.3516ZM27.6296 52.9766V62H28.8796V52.9766H27.6296ZM28.2546 61.375H25.9482V62.625H28.2546V61.375ZM31.291 57.3351L34.0023 62.2996L35.0993 61.7004L32.388 56.7359L31.291 57.3351ZM34.5508 61.375H32.0046V62.625H34.5508V61.375ZM32.5559 61.7055L29.9032 56.741L28.8007 57.3301L31.4534 62.2945L32.5559 61.7055ZM29.3519 57.6605H31.8395V56.4105H29.3519V57.6605ZM42.5302 51.0909V50.4659C42.185 50.4659 41.9052 50.7457 41.9052 51.0909H42.5302ZM44.8366 51.0909H45.4616C45.4616 50.7457 45.1818 50.4659 44.8366 50.4659V51.0909ZM44.2667 60.2635L43.7395 59.9277L43.7381 59.93L44.2667 60.2635ZM42.6847 61.6591L42.9583 62.221L42.9606 62.2199L42.6847 61.6591ZM37.9386 61.6591L37.6626 62.2199L37.665 62.221L37.9386 61.6591ZM36.3565 60.2635L35.828 60.597L35.828 60.597L36.3565 60.2635ZM35.7919 51.0909V50.4659C35.4467 50.4659 35.1669 50.7457 35.1669 51.0909H35.7919ZM38.0984 51.0909H38.7234C38.7234 50.7457 38.4435 50.4659 38.0984 50.4659V51.0909ZM38.37 59.0863L37.8248 59.3919L37.8274 59.3964L38.37 59.0863ZM39.1477 59.848L38.8452 60.3949L38.8452 60.3949L39.1477 59.848ZM41.4808 59.848L41.1783 59.3011L41.1758 59.3025L41.4808 59.848ZM42.2532 59.0863L41.7105 58.7762L41.708 58.7807L42.2532 59.0863ZM42.5302 51.7159H44.8366V50.4659H42.5302V51.7159ZM44.2116 51.0909V58.1754H45.4616V51.0909H44.2116ZM44.2116 58.1754C44.2116 58.8672 44.0479 59.4436 43.7395 59.9277L44.7939 60.5992C45.2455 59.8902 45.4616 59.0746 45.4616 58.1754H44.2116ZM43.7381 59.93C43.4277 60.4219 42.9911 60.8117 42.4087 61.0983L42.9606 62.2199C43.7348 61.8389 44.3528 61.2983 44.7953 60.597L43.7381 59.93ZM42.4111 61.0972C41.8331 61.3786 41.1398 61.5295 40.3143 61.5295V62.7795C41.2927 62.7795 42.1797 62.6001 42.9583 62.221L42.4111 61.0972ZM40.3143 61.5295C39.4848 61.5295 38.7898 61.3784 38.2122 61.0972L37.665 62.221C38.4439 62.6003 39.3327 62.7795 40.3143 62.7795V61.5295ZM38.2145 61.0983C37.6321 60.8117 37.1955 60.4219 36.8851 59.93L35.828 60.597C36.2704 61.2983 36.8885 61.8389 37.6626 62.2199L38.2145 61.0983ZM36.8851 59.93C36.5795 59.4456 36.4169 58.8683 36.4169 58.1754H35.1669C35.1669 59.0734 35.3808 59.8882 35.828 60.597L36.8851 59.93ZM36.4169 58.1754V51.0909H35.1669V58.1754H36.4169ZM35.7919 51.7159H38.0984V50.4659H35.7919V51.7159ZM37.4734 51.0909V57.9783H38.7234V51.0909H37.4734ZM37.4734 57.9783C37.4734 58.4876 37.5853 58.9644 37.8248 59.3919L38.9152 58.7807C38.7926 58.5618 38.7234 58.3001 38.7234 57.9783H37.4734ZM37.8274 59.3964C38.0703 59.8216 38.4138 60.1563 38.8452 60.3949L39.4503 59.3011C39.2141 59.1704 39.039 58.9973 38.9127 58.7762L37.8274 59.3964ZM38.8452 60.3949C39.2857 60.6386 39.782 60.75 40.3143 60.75V59.5C39.9588 59.5 39.6773 59.4267 39.4503 59.3011L38.8452 60.3949ZM40.3143 60.75C40.849 60.75 41.3467 60.6391 41.7858 60.3935L41.1758 59.3025C40.9545 59.4263 40.6745 59.5 40.3143 59.5V60.75ZM41.7834 60.3949C42.2157 60.1557 42.5587 59.8196 42.7984 59.3919L41.708 58.7807C41.5855 58.9993 41.4135 59.171 41.1783 59.3011L41.7834 60.3949ZM42.7958 59.3964C43.0405 58.9682 43.1552 58.4897 43.1552 57.9783H41.9052C41.9052 58.298 41.8352 58.5581 41.7105 58.7762L42.7958 59.3964ZM43.1552 57.9783V51.0909H41.9052V57.9783H43.1552ZM55.8589 51.0909H56.4839C56.4839 50.7457 56.2041 50.4659 55.8589 50.4659V51.0909ZM55.8589 62V62.625C56.2041 62.625 56.4839 62.3452 56.4839 62H55.8589ZM53.8667 62L53.3526 62.3554C53.4693 62.5242 53.6615 62.625 53.8667 62.625V62ZM49.1206 55.1339L49.6348 54.7785C49.5181 54.6097 49.3259 54.5089 49.1206 54.5089V55.1339ZM49.0407 55.1339V54.5089C48.6956 54.5089 48.4157 54.7887 48.4157 55.1339H49.0407ZM49.0407 62V62.625C49.3859 62.625 49.6657 62.3452 49.6657 62H49.0407ZM46.7343 62H46.1093C46.1093 62.3452 46.3891 62.625 46.7343 62.625V62ZM46.7343 51.0909V50.4659C46.3891 50.4659 46.1093 50.7457 46.1093 51.0909H46.7343ZM48.7584 51.0909L49.2737 50.7372C49.1572 50.5674 48.9644 50.4659 48.7584 50.4659V51.0909ZM53.4672 57.9517L52.9519 58.3054C53.0685 58.4752 53.2613 58.5767 53.4672 58.5767V57.9517ZM53.5631 57.9517V58.5767C53.9083 58.5767 54.1881 58.2969 54.1881 57.9517H53.5631ZM53.5631 51.0909V50.4659C53.2179 50.4659 52.9381 50.7457 52.9381 51.0909H53.5631ZM55.2339 51.0909V62H56.4839V51.0909H55.2339ZM55.8589 61.375H53.8667V62.625H55.8589V61.375ZM54.3809 61.6446L49.6348 54.7785L48.6065 55.4893L53.3526 62.3554L54.3809 61.6446ZM49.1206 54.5089H49.0407V55.7589H49.1206V54.5089ZM48.4157 55.1339V62H49.6657V55.1339H48.4157ZM49.0407 61.375H46.7343V62.625H49.0407V61.375ZM47.3593 62V51.0909H46.1093V62H47.3593ZM46.7343 51.7159H48.7584V50.4659H46.7343V51.7159ZM48.2431 51.4446L52.9519 58.3054L53.9825 57.598L49.2737 50.7372L48.2431 51.4446ZM53.4672 58.5767H53.5631V57.3267H53.4672V58.5767ZM54.1881 57.9517V51.0909H52.9381V57.9517H54.1881ZM53.5631 51.7159H55.8589V50.4659H53.5631V51.7159Z" fill="white"/>
<path d="M24.931 67.7775L24.1415 67.8261C24.1281 67.7586 24.099 67.6979 24.0545 67.6439C24.01 67.5886 23.9513 67.5447 23.8784 67.5123C23.8069 67.4786 23.7212 67.4617 23.6213 67.4617C23.4877 67.4617 23.3751 67.4901 23.2833 67.5467C23.1915 67.6021 23.1457 67.6763 23.1457 67.7694C23.1457 67.8436 23.1754 67.9064 23.2347 67.9576C23.2941 68.0089 23.396 68.0501 23.5404 68.0811L24.1031 68.1945C24.4054 68.2565 24.6307 68.3564 24.7792 68.494C24.9276 68.6317 25.0018 68.8125 25.0018 69.0365C25.0018 69.2403 24.9418 69.4191 24.8217 69.5729C24.7029 69.7267 24.5396 69.8468 24.3318 69.9332C24.1254 70.0182 23.8872 70.0607 23.6173 70.0607C23.2057 70.0607 22.8778 69.975 22.6336 69.8037C22.3907 69.6309 22.2483 69.3961 22.2065 69.0993L23.0546 69.0547C23.0802 69.1802 23.1423 69.276 23.2408 69.3422C23.3393 69.4069 23.4655 69.4393 23.6193 69.4393C23.7705 69.4393 23.8919 69.4103 23.9837 69.3523C24.0768 69.2929 24.124 69.2167 24.1254 69.1235C24.124 69.0453 24.0909 68.9812 24.0262 68.9313C23.9614 68.88 23.8615 68.8408 23.7266 68.8138L23.1882 68.7066C22.8846 68.6458 22.6585 68.5406 22.5101 68.3908C22.363 68.241 22.2895 68.0501 22.2895 67.818C22.2895 67.6183 22.3434 67.4462 22.4514 67.3018C22.5607 67.1574 22.7138 67.0461 22.9109 66.9678C23.1092 66.8896 23.3413 66.8504 23.6072 66.8504C23.9999 66.8504 24.3089 66.9334 24.5342 67.0994C24.7609 67.2654 24.8932 67.4914 24.931 67.7775ZM26.4071 68.2026V70H25.5448V66.8909H26.3666V67.4395H26.403C26.4718 67.2586 26.5872 67.1156 26.7492 67.0103C26.9111 66.9037 27.1074 66.8504 27.3382 66.8504C27.5541 66.8504 27.7423 66.8977 27.9029 66.9921C28.0635 67.0866 28.1883 67.2215 28.2774 67.3969C28.3665 67.571 28.411 67.7788 28.411 68.0204V70H27.5487V68.1742C27.55 67.9839 27.5015 67.8355 27.403 67.7289C27.3044 67.621 27.1688 67.567 26.9961 67.567C26.8801 67.567 26.7775 67.5919 26.6884 67.6419C26.6007 67.6918 26.5319 67.7647 26.482 67.8605C26.4334 67.9549 26.4084 68.069 26.4071 68.2026ZM30.5075 70.0607C30.1877 70.0607 29.9124 69.996 29.6816 69.8664C29.4522 69.7355 29.2755 69.5506 29.1513 69.3118C29.0272 69.0716 28.9651 68.7875 28.9651 68.4596C28.9651 68.1398 29.0272 67.8591 29.1513 67.6176C29.2755 67.376 29.4502 67.1878 29.6756 67.0528C29.9023 66.9179 30.1681 66.8504 30.4731 66.8504C30.6782 66.8504 30.8691 66.8835 31.0459 66.9496C31.224 67.0144 31.3792 67.1122 31.5115 67.2431C31.6451 67.374 31.749 67.5386 31.8232 67.737C31.8974 67.934 31.9345 68.1648 31.9345 68.4293V68.6661H29.3092V68.1317H31.1228C31.1228 68.0076 31.0958 67.8976 31.0419 67.8018C30.9879 67.706 30.913 67.6311 30.8172 67.5771C30.7227 67.5218 30.6127 67.4941 30.4873 67.4941C30.3564 67.4941 30.2403 67.5245 30.1391 67.5852C30.0392 67.6446 29.961 67.7249 29.9043 67.8261C29.8476 67.9259 29.8186 68.0373 29.8173 68.16V68.6681C29.8173 68.8219 29.8456 68.9549 29.9023 69.0669C29.9603 69.1789 30.0419 69.2652 30.1472 69.326C30.2525 69.3867 30.3773 69.417 30.5217 69.417C30.6175 69.417 30.7052 69.4036 30.7848 69.3766C30.8644 69.3496 30.9326 69.3091 30.9892 69.2551C31.0459 69.2011 31.0891 69.135 31.1188 69.0567L31.9163 69.1094C31.8758 69.301 31.7928 69.4683 31.6673 69.6114C31.5432 69.7531 31.3826 69.8637 31.1856 69.9433C30.9899 70.0216 30.7639 70.0607 30.5075 70.0607ZM33.3838 70.0587C33.1854 70.0587 33.0087 70.0243 32.8535 69.9555C32.6983 69.8853 32.5755 69.7821 32.4851 69.6458C32.396 69.5081 32.3515 69.3368 32.3515 69.1316C32.3515 68.9589 32.3832 68.8138 32.4466 68.6964C32.51 68.579 32.5964 68.4846 32.7057 68.4131C32.815 68.3415 32.9392 68.2876 33.0782 68.2511C33.2185 68.2147 33.3656 68.1891 33.5194 68.1742C33.7002 68.1553 33.846 68.1378 33.9566 68.1216C34.0673 68.104 34.1476 68.0784 34.1975 68.0447C34.2474 68.0109 34.2724 67.961 34.2724 67.8949V67.8827C34.2724 67.7545 34.2319 67.6554 34.151 67.5852C34.0713 67.515 33.958 67.4799 33.8109 67.4799C33.6557 67.4799 33.5322 67.5143 33.4405 67.5832C33.3487 67.6506 33.288 67.7357 33.2583 67.8382L32.4608 67.7734C32.5013 67.5845 32.5809 67.4212 32.6996 67.2836C32.8184 67.1446 32.9716 67.038 33.1591 66.9638C33.348 66.8882 33.5667 66.8504 33.815 66.8504C33.9877 66.8504 34.153 66.8707 34.3109 66.9112C34.4701 66.9516 34.6111 67.0144 34.7339 67.0994C34.8581 67.1844 34.9559 67.2937 35.0274 67.4273C35.0989 67.5596 35.1347 67.7181 35.1347 67.903V70H34.3169V69.5689H34.2926C34.2427 69.666 34.1759 69.7517 34.0923 69.8259C34.0086 69.8988 33.9081 69.9561 33.7907 69.998C33.6733 70.0385 33.5376 70.0587 33.3838 70.0587ZM33.6308 69.4636C33.7576 69.4636 33.8696 69.4386 33.9668 69.3887C34.0639 69.3374 34.1402 69.2686 34.1955 69.1822C34.2508 69.0959 34.2785 68.998 34.2785 68.8887V68.5588C34.2515 68.5763 34.2144 68.5925 34.1672 68.6074C34.1213 68.6209 34.0693 68.6337 34.0113 68.6458C33.9533 68.6566 33.8952 68.6668 33.8372 68.6762C33.7792 68.6843 33.7266 68.6917 33.6793 68.6985C33.5781 68.7133 33.4897 68.7369 33.4142 68.7693C33.3386 68.8017 33.2799 68.8456 33.2381 68.9009C33.1962 68.9549 33.1753 69.0223 33.1753 69.1033C33.1753 69.2207 33.2178 69.3104 33.3028 69.3725C33.3892 69.4332 33.4985 69.4636 33.6308 69.4636ZM36.585 69.1053L36.587 68.071H36.7125L37.7084 66.8909H38.6982L37.3602 68.4536H37.1558L36.585 69.1053ZM35.8037 70V65.8545H36.666V70H35.8037ZM37.7469 70L36.8319 68.6458L37.4068 68.0366L38.7569 70H37.7469ZM40.4101 70.0607C40.0903 70.0607 39.815 69.996 39.5843 69.8664C39.3549 69.7355 39.1781 69.5506 39.0539 69.3118C38.9298 69.0716 38.8677 68.7875 38.8677 68.4596C38.8677 68.1398 38.9298 67.8591 39.0539 67.6176C39.1781 67.376 39.3528 67.1878 39.5782 67.0528C39.8049 66.9179 40.0707 66.8504 40.3757 66.8504C40.5808 66.8504 40.7718 66.8835 40.9486 66.9496C41.1267 67.0144 41.2819 67.1122 41.4141 67.2431C41.5477 67.374 41.6516 67.5386 41.7258 67.737C41.8 67.934 41.8372 68.1648 41.8372 68.4293V68.6661H39.2118V68.1317H41.0255C41.0255 68.0076 40.9985 67.8976 40.9445 67.8018C40.8905 67.706 40.8156 67.6311 40.7198 67.5771C40.6254 67.5218 40.5154 67.4941 40.3899 67.4941C40.259 67.4941 40.1429 67.5245 40.0417 67.5852C39.9419 67.6446 39.8636 67.7249 39.8069 67.8261C39.7503 67.9259 39.7212 68.0373 39.7199 68.16V68.6681C39.7199 68.8219 39.7482 68.9549 39.8049 69.0669C39.8629 69.1789 39.9446 69.2652 40.0498 69.326C40.1551 69.3867 40.2799 69.417 40.4243 69.417C40.5201 69.417 40.6078 69.4036 40.6874 69.3766C40.7671 69.3496 40.8352 69.3091 40.8919 69.2551C40.9486 69.2011 40.9917 69.135 41.0214 69.0567L41.8189 69.1094C41.7785 69.301 41.6955 69.4683 41.57 69.6114C41.4458 69.7531 41.2852 69.8637 41.0882 69.9433C40.8926 70.0216 40.6665 70.0607 40.4101 70.0607ZM42.3999 70V66.8909H43.2358V67.4334H43.2682C43.3249 67.2404 43.42 67.0947 43.5536 66.9962C43.6872 66.8963 43.8411 66.8464 44.0151 66.8464C44.0583 66.8464 44.1049 66.8491 44.1548 66.8545C44.2047 66.8599 44.2486 66.8673 44.2864 66.8767V67.6419C44.2459 67.6297 44.1899 67.6189 44.1184 67.6095C44.0468 67.6 43.9814 67.5953 43.922 67.5953C43.7952 67.5953 43.6818 67.623 43.582 67.6783C43.4835 67.7323 43.4052 67.8078 43.3472 67.905C43.2905 68.0022 43.2622 68.1142 43.2622 68.241V70H42.3999ZM48.6383 67.7775L47.8489 67.8261C47.8354 67.7586 47.8064 67.6979 47.7618 67.6439C47.7173 67.5886 47.6586 67.5447 47.5857 67.5123C47.5142 67.4786 47.4285 67.4617 47.3287 67.4617C47.1951 67.4617 47.0824 67.4901 46.9906 67.5467C46.8989 67.6021 46.853 67.6763 46.853 67.7694C46.853 67.8436 46.8827 67.9064 46.9421 67.9576C47.0014 68.0089 47.1033 68.0501 47.2477 68.0811L47.8104 68.1945C48.1127 68.2565 48.338 68.3564 48.4865 68.494C48.6349 68.6317 48.7091 68.8125 48.7091 69.0365C48.7091 69.2403 48.6491 69.4191 48.529 69.5729C48.4102 69.7267 48.247 69.8468 48.0391 69.9332C47.8327 70.0182 47.5945 70.0607 47.3246 70.0607C46.913 70.0607 46.5851 69.975 46.3409 69.8037C46.098 69.6309 45.9556 69.3961 45.9138 69.0993L46.7619 69.0547C46.7875 69.1802 46.8496 69.276 46.9481 69.3422C47.0466 69.4069 47.1728 69.4393 47.3266 69.4393C47.4778 69.4393 47.5992 69.4103 47.691 69.3523C47.7841 69.2929 47.8313 69.2167 47.8327 69.1235C47.8313 69.0453 47.7983 68.9812 47.7335 68.9313C47.6687 68.88 47.5689 68.8408 47.4339 68.8138L46.8955 68.7066C46.5919 68.6458 46.3658 68.5406 46.2174 68.3908C46.0703 68.241 45.9968 68.0501 45.9968 67.818C45.9968 67.6183 46.0508 67.4462 46.1587 67.3018C46.268 67.1574 46.4212 67.0461 46.6182 66.9678C46.8166 66.8896 47.0487 66.8504 47.3145 66.8504C47.7072 66.8504 48.0162 66.9334 48.2416 67.0994C48.4683 67.2654 48.6005 67.4914 48.6383 67.7775ZM50.9058 66.8909V67.5386H49.0335V66.8909H50.9058ZM49.4586 66.146H50.3209V69.0446C50.3209 69.1242 50.333 69.1863 50.3573 69.2308C50.3816 69.274 50.4153 69.3044 50.4585 69.3219C50.503 69.3395 50.5543 69.3482 50.6123 69.3482C50.6528 69.3482 50.6933 69.3449 50.7338 69.3381C50.7743 69.33 50.8053 69.3239 50.8269 69.3199L50.9625 69.9615C50.9193 69.975 50.8586 69.9906 50.7803 70.0081C50.7021 70.027 50.6069 70.0385 50.4949 70.0425C50.2871 70.0506 50.105 70.0229 49.9484 69.9595C49.7932 69.8961 49.6725 69.7976 49.5861 69.664C49.4997 69.5304 49.4572 69.3617 49.4586 69.158V66.146ZM52.8389 70.0607C52.5245 70.0607 52.2526 69.9939 52.0232 69.8603C51.7951 69.7254 51.619 69.5378 51.4949 69.2976C51.3707 69.0561 51.3086 68.7761 51.3086 68.4576C51.3086 68.1364 51.3707 67.8558 51.4949 67.6156C51.619 67.374 51.7951 67.1864 52.0232 67.0528C52.2526 66.9179 52.5245 66.8504 52.8389 66.8504C53.1533 66.8504 53.4246 66.9179 53.6526 67.0528C53.882 67.1864 54.0588 67.374 54.1829 67.6156C54.3071 67.8558 54.3692 68.1364 54.3692 68.4576C54.3692 68.7761 54.3071 69.0561 54.1829 69.2976C54.0588 69.5378 53.882 69.7254 53.6526 69.8603C53.4246 69.9939 53.1533 70.0607 52.8389 70.0607ZM52.843 69.3928C52.986 69.3928 53.1054 69.3523 53.2012 69.2713C53.297 69.189 53.3692 69.077 53.4178 68.9353C53.4677 68.7936 53.4927 68.6324 53.4927 68.4515C53.4927 68.2707 53.4677 68.1094 53.4178 67.9678C53.3692 67.8261 53.297 67.7141 53.2012 67.6317C53.1054 67.5494 52.986 67.5083 52.843 67.5083C52.6986 67.5083 52.5771 67.5494 52.4786 67.6317C52.3814 67.7141 52.3079 67.8261 52.258 67.9678C52.2094 68.1094 52.1851 68.2707 52.1851 68.4515C52.1851 68.6324 52.2094 68.7936 52.258 68.9353C52.3079 69.077 52.3814 69.189 52.4786 69.2713C52.5771 69.3523 52.6986 69.3928 52.843 69.3928ZM54.9298 70V66.8909H55.7658V67.4334H55.7982C55.8549 67.2404 55.95 67.0947 56.0836 66.9962C56.2172 66.8963 56.371 66.8464 56.5451 66.8464C56.5883 66.8464 56.6349 66.8491 56.6848 66.8545C56.7347 66.8599 56.7786 66.8673 56.8163 66.8767V67.6419C56.7759 67.6297 56.7199 67.6189 56.6483 67.6095C56.5768 67.6 56.5114 67.5953 56.452 67.5953C56.3252 67.5953 56.2118 67.623 56.1119 67.6783C56.0134 67.7323 55.9352 67.8078 55.8771 67.905C55.8205 68.0022 55.7921 68.1142 55.7921 68.241V70H54.9298ZM58.5343 70.0607C58.2145 70.0607 57.9392 69.996 57.7085 69.8664C57.4791 69.7355 57.3023 69.5506 57.1782 69.3118C57.054 69.0716 56.9919 68.7875 56.9919 68.4596C56.9919 68.1398 57.054 67.8591 57.1782 67.6176C57.3023 67.376 57.4771 67.1878 57.7024 67.0528C57.9291 66.9179 58.195 66.8504 58.4999 66.8504C58.705 66.8504 58.896 66.8835 59.0728 66.9496C59.2509 67.0144 59.4061 67.1122 59.5383 67.2431C59.6719 67.374 59.7758 67.5386 59.85 67.737C59.9243 67.934 59.9614 68.1648 59.9614 68.4293V68.6661H57.3361V68.1317H59.1497C59.1497 68.0076 59.1227 67.8976 59.0687 67.8018C59.0147 67.706 58.9399 67.6311 58.844 67.5771C58.7496 67.5218 58.6396 67.4941 58.5141 67.4941C58.3832 67.4941 58.2672 67.5245 58.166 67.5852C58.0661 67.6446 57.9878 67.7249 57.9312 67.8261C57.8745 67.9259 57.8455 68.0373 57.8441 68.16V68.6681C57.8441 68.8219 57.8725 68.9549 57.9291 69.0669C57.9872 69.1789 58.0688 69.2652 58.174 69.326C58.2793 69.3867 58.4041 69.417 58.5485 69.417C58.6443 69.417 58.732 69.4036 58.8117 69.3766C58.8913 69.3496 58.9594 69.3091 59.0161 69.2551C59.0728 69.2011 59.116 69.135 59.1456 69.0567L59.9432 69.1094C59.9027 69.301 59.8197 69.4683 59.6942 69.6114C59.57 69.7531 59.4095 69.8637 59.2124 69.9433C59.0168 70.0216 58.7907 70.0607 58.5343 70.0607Z" fill="white"/>
</g>
</svg>
