<svg viewBox="0 0 128 128" xml:space="preserve" xmlns="http://www.w3.org/2000/svg" enable-background="new 0 0 128 128"><path d="M39.9 96.4c-1.1-1.3-2.7-2.8-3.9-4l-7.9-7.9c-4.1-4-8.3-8.2-12.5-12.2C5.9 66.1 0 55.4 0 43.8c0-18.8 15.2-34 34-34 12.9 0 24.2 7.2 30 18 5.7-10.7 17.1-18 30-18 18.8 0 34 15.2 34 34 0 11.6-5.9 22.3-15.6 28.6-4.2 3.9-8.4 8.1-12.5 12.2-2.7 2.6-5.3 5.2-7.9 7.9-1.2 1.2-2.8 2.7-3.9 4-.2.3-.4.6-.7.9l-20.6 21c-.8.8-1.7 1.2-2.9 1.2-1.1 0-2.1-.4-2.9-1.2l-20.6-21c-.1-.4-.3-.7-.5-1zM64 115.5l20.6-21c-.8 0 25.3-25.3 25.4-25.3 8.4-5.3 14-14.7 14-25.4 0-16.6-13.4-30-30-30-16.2 0-29.4 12.8-30 28.8-.6-16-13.8-28.8-30-28.8-16.6 0-30 13.4-30 30 0 10.7 5.6 20.1 14 25.4.1 0 26.2 25.3 25.4 25.3l20.6 21z" fill-rule="evenodd" clip-rule="evenodd" fill="#e01b1b" class="fill-000000"></path><path d="m64 115.5-20.6-21c.8 0-25.3-25.3-25.4-25.3C9.6 63.9 4 54.5 4 43.8c0-16.6 13.4-30 30-30 16.2 0 29.4 12.8 30 28.8.6-16 13.8-28.8 30-28.8 16.6 0 30 13.4 30 30 0 10.7-5.6 20.1-14 25.4-.1 0-26.2 25.3-25.4 25.3l-20.6 21z" fill-rule="evenodd" clip-rule="evenodd" fill="#e01b1b" class="fill-7aced7"></path></svg>