<svg width="1536" height="1537" viewBox="0 0 1536 1537" fill="none" xmlns="http://www.w3.org/2000/svg">
<mask id="mask0_7_220" style="mask-type:alpha" maskUnits="userSpaceOnUse" x="0" y="0" width="1536" height="1537">
<path d="M767.758 1536.36C1191.76 1536.36 1535.48 1192.64 1535.48 768.644C1535.48 344.645 1191.76 0.925293 767.758 0.925293C343.76 0.925293 0.0405273 344.645 0.0405273 768.644C0.0405273 1192.64 343.76 1536.36 767.758 1536.36Z" fill="#37485A"/>
</mask>
<g mask="url(#mask0_7_220)">
<path d="M767.755 1477.31C1159.14 1477.31 1476.42 1160.03 1476.42 768.648C1476.42 377.265 1159.14 59.9862 767.755 59.9862C376.372 59.9862 59.094 377.265 59.094 768.648C59.094 1160.03 376.372 1477.31 767.755 1477.31Z" fill="#37485A" stroke="white" stroke-width="37.3885" stroke-miterlimit="1.5" stroke-linecap="round" stroke-linejoin="round"/>
<path d="M981.73 423.996C1037.18 423.996 1082.12 379.048 1082.12 323.603C1082.12 268.157 1037.18 223.209 981.73 223.209C926.284 223.209 881.336 268.157 881.336 323.603C881.336 379.048 926.284 423.996 981.73 423.996Z" fill="#37485A" stroke="white" stroke-width="33.2889" stroke-miterlimit="1.5" stroke-linecap="round" stroke-linejoin="round"/>
<path fill-rule="evenodd" clip-rule="evenodd" d="M460.881 667.546C460.881 661.549 456.013 656.669 450.011 656.669H118.565C112.563 656.669 107.695 661.549 107.695 667.546V689.284C107.695 695.296 112.563 700.161 118.565 700.161H450.011C456.013 700.161 460.881 695.296 460.881 689.284V667.546Z" fill="#F20D0D"/>
<path fill-rule="evenodd" clip-rule="evenodd" d="M420.62 779.511C420.62 773.513 415.749 768.634 409.753 768.634H158.84C152.835 768.634 147.963 773.513 147.963 779.511V801.249C147.963 807.261 152.835 812.125 158.84 812.125H409.753C415.749 812.125 420.62 807.261 420.62 801.249V779.511Z" fill="white"/>
<path fill-rule="evenodd" clip-rule="evenodd" d="M361.251 886.221C361.251 880.224 356.38 875.344 350.38 875.344H218.211C212.211 875.344 207.339 880.224 207.339 886.221V907.959C207.339 913.971 212.211 918.836 218.211 918.836H350.38C356.38 918.836 361.251 913.971 361.251 907.959V886.221Z" fill="#F20D0D"/>
<path fill-rule="evenodd" clip-rule="evenodd" d="M1208.31 1175.55C1208.31 1169.15 1203.11 1163.94 1196.71 1163.94H305.999C299.6 1163.94 294.401 1169.15 294.401 1175.55V1198.74C294.401 1205.15 299.6 1210.34 305.999 1210.34H1196.71C1203.11 1210.34 1208.31 1205.15 1208.31 1198.74V1175.55Z" fill="white" stroke="#F20D0D" stroke-width="0.863453" stroke-miterlimit="1.5" stroke-linecap="round" stroke-linejoin="round"/>
<path fill-rule="evenodd" clip-rule="evenodd" d="M1009.11 1265.98C1009.11 1259.99 1004.24 1255.11 998.235 1255.11H537.304C531.302 1255.11 526.426 1259.99 526.426 1265.98V1287.72C526.426 1293.73 531.302 1298.6 537.304 1298.6H998.235C1004.24 1298.6 1009.11 1293.73 1009.11 1287.72V1265.98Z" fill="#F20D0D"/>
<path fill-rule="evenodd" clip-rule="evenodd" d="M898.122 1351.24C898.122 1345.24 893.254 1340.37 887.255 1340.37H648.272C642.273 1340.37 637.396 1345.24 637.396 1351.24V1372.98C637.396 1378.99 642.273 1383.86 648.272 1383.86H887.255C893.254 1383.86 898.122 1378.99 898.122 1372.98V1351.24Z" fill="#F20D0D"/>
<path fill-rule="evenodd" clip-rule="evenodd" d="M1396.53 910.754C1396.53 904.757 1391.66 899.877 1385.65 899.877H1002.67C996.66 899.877 991.789 904.757 991.789 910.754V932.492C991.789 938.504 996.66 943.369 1002.67 943.369H1385.65C1391.66 943.369 1396.53 938.504 1396.53 932.492V910.754Z" fill="white"/>
<path fill-rule="evenodd" clip-rule="evenodd" d="M1396.5 801.256C1396.5 795.259 1391.63 790.379 1385.63 790.379H1062.01C1056.02 790.379 1051.15 795.259 1051.15 801.256V822.994C1051.15 829.006 1056.02 833.87 1062.01 833.87H1385.63C1391.63 833.87 1396.5 829.006 1396.5 822.994V801.256Z" fill="#F20D0D"/>
<path fill-rule="evenodd" clip-rule="evenodd" d="M1368.78 693.126C1368.78 687.129 1363.91 682.25 1357.91 682.25H1120.87C1114.86 682.25 1109.99 687.129 1109.99 693.126V714.864C1109.99 720.876 1114.86 725.741 1120.87 725.741H1357.91C1363.91 725.741 1368.78 720.876 1368.78 714.864V693.126Z" fill="#F20D0D"/>
<path fill-rule="evenodd" clip-rule="evenodd" d="M925.811 508.896C902.397 482.599 851.563 426.344 832.128 405.578C824.928 397.911 814.985 388.719 809.177 384.305C805.635 381.633 801.475 379.382 797.212 379.15C779.361 378.191 733.744 378.67 701.996 378.511C669.657 378.365 622.223 377.291 603.174 378.249C597.726 378.525 592.407 381.154 587.732 384.305C580.494 389.198 568.194 398.681 559.707 407.611C544.973 423.134 514.63 460.396 499.316 477.415C489.219 488.639 474.755 500.736 467.826 509.695C463.113 515.794 459.056 523.505 457.743 531.143C456.416 538.767 457.381 547.813 459.88 555.451C462.391 563.119 467.969 571.773 472.824 577.117C477.242 581.996 482.921 585.902 488.949 587.485C496.174 589.387 508.164 590.128 516.149 588.531C523.606 587.05 530.857 583.172 536.833 577.916C547.523 568.535 566.262 547.988 580.262 532.188C595.138 515.387 612.254 487.289 626.112 477.11C636.622 469.384 650.853 471.751 663.385 471.098C689.426 469.733 762.193 467.903 782.375 468.891C784.899 469.021 786.059 474.859 784.487 477.095C777.649 486.781 755.767 510.45 741.355 527.077C723.144 548.075 694.269 578.99 675.195 603.11C657.949 624.935 643.525 649.418 626.924 671.868C609.756 695.087 590.462 718.975 572.161 742.456C550.859 769.799 523.117 805.463 499.084 835.914C475.515 865.784 451.496 895.974 427.991 925.147C404.822 953.899 375.303 989.998 358.044 1010.94C346.968 1024.38 331.371 1041.71 324.43 1050.87C321.068 1055.33 317.552 1060.21 316.419 1065.92C315.105 1072.58 314.551 1082.8 316.509 1090.78C318.467 1098.76 323.335 1107.45 328.164 1113.76C332.904 1119.96 338.506 1126.37 345.474 1128.66C353.356 1131.26 365.707 1131.87 375.444 1129.34C385.309 1126.8 395.999 1120.63 404.706 1113.34C418.061 1102.17 438.938 1079.75 455.565 1062.36C492.142 1024.05 585.916 924.624 624.18 883.514C644.839 861.312 671.125 832.342 685.099 815.7C693.47 805.724 702.009 790.216 708.037 783.623C711.578 779.76 716.344 776.159 721.276 776.159C726.505 776.159 734.246 779.31 739.423 783.623C752.908 794.877 792.305 831.267 802.171 843.61C805.068 847.24 801.372 853.964 798.59 857.681C789.395 869.952 762.773 900.795 747.035 917.247C733.537 931.333 715.893 944.663 704.108 956.338C694.32 966.038 682.227 979.209 676.315 987.312C672.632 992.38 669.399 998.464 668.652 1004.97C667.66 1013.71 666.771 1029.16 670.326 1039.76C673.906 1050.36 680.359 1063.32 690.057 1068.57C701.417 1074.72 723.917 1085.03 738.444 1076.68C760.571 1063.97 795.396 1021.31 822.816 992.322C851.434 962.089 893.69 914.416 910.111 895.277C914.606 890.049 920.08 884.647 921.381 877.517C923.261 867.265 927.872 846.369 921.381 833.736C912.069 815.584 883.992 790.463 865.485 768.623C844.015 743.283 801.707 700.983 792.537 681.699C787.63 671.374 803.845 661.979 810.465 652.932C821.734 637.54 850.249 600.874 860.14 589.3C862.677 586.323 866.451 581.807 869.812 583.434C873.933 585.423 879.858 595.312 884.868 601.266C894.205 612.389 915.289 638.382 925.85 650.144C932.843 657.942 938.677 669.022 948.182 671.868C960.289 675.484 984.875 682.933 998.449 671.868C1030.08 646.136 1114.08 547.537 1137.91 517.464C1143.08 510.929 1141.67 498.964 1141.42 491.471C1141.2 484.893 1139.94 477.792 1136.42 472.521C1131.83 465.623 1122.81 453.905 1113.83 450.1C1104.87 446.31 1091.45 447.254 1082.62 449.737C1074.32 452.075 1067.1 458.421 1060.84 464.999C1046.45 480.115 1009.38 524.928 996.338 540.422C991.559 546.1 986.511 554.188 982.557 558.022C979.775 560.708 975.538 565.907 972.627 563.38C963.161 555.205 941.691 526.743 925.811 508.896Z" fill="#37485A" stroke="white" stroke-width="37.3617" stroke-miterlimit="1.5" stroke-linecap="round" stroke-linejoin="round"/>
</g>
</svg>
